<?xml version="1.0" encoding="UTF-8"?>
<svg width="161.31mm" height="123.16mm" enable-background="new" version="1.1" viewBox="0 0 609.69 465.47" xml:space="preserve" xmlns="http://www.w3.org/2000/svg"><g transform="translate(-10.592 -285.22)" fill="none" opacity=".97"><g stroke="#000"><g stroke-linecap="round"><g stroke-width=".60238"><rect id="room100" x="472.75" y="604.78" width="23.812" height="30.416" opacity="1"/><rect id="room129" x="20.503" y="572.39" width="39.797" height="31.199" opacity="1"/><rect id="room131" x="60.301" y="572.43" width="13.39" height="31.154" opacity="1"/><rect id="room133" x="73.69" y="572.55" width="26.536" height="31.031" opacity="1"/><rect id="room135" x="100.23" y="572.55" width="24.443" height="31.031" opacity="1"/><rect id="room137" x="62.974" y="454.49" width="61.696" height="90.982" opacity="1"/><rect id="room176" x="135.44" y="413.14" width="36.788" height="32.591" opacity="1"/><rect x="184.45" y="375.24" width="36.047" height="39.031" opacity="1"/><rect x="220.5" y="402.4" width="11.11" height="15.455" opacity="1"/><rect id="room168" x="220.5" y="417.85" width="11.11" height="27.875" opacity="1"/><rect id="room170" x="200.99" y="423.9" width="19.505" height="21.83" opacity="1"/><rect id="room172" x="184.45" y="423.9" width="16.542" height="21.83" opacity="1"/><rect id="room166B" x="231.61" y="408.08" width="23.22" height="14.49" opacity="1"/><rect id="room166A" x="231.61" y="422.57" width="16.165" height="9.3841" opacity="1"/><rect id="room166" x="247.67" y="422.57" width="13.618" height="23.162" opacity="1"/><rect id="room166C" x="254.83" y="408.08" width="22.172" height="14.49" opacity="1"/><rect id="room166D" x="261.28" y="422.57" width="15.713" height="11.465" opacity="1"/><rect id="room166E" x="261.28" y="434.03" width="15.713" height="11.697" opacity="1"/><rect id="room164A" x="277" y="408.08" width="14.852" height="12.098" opacity="1"/><rect id="room164" x="277" y="420.18" width="14.852" height="25.554" opacity="1"/><path d="m325.37 439.55h-26.898v-10.389" opacity="1"/><path id="room162" d="m291.85 410.92v34.807l29.933 2.2e-4v-6.1756h3.5872v-28.632l-26.898 1.1e-4z" opacity="1"/><path d="m325.37 410.92v28.632h-3.5872v6.1756h46.361v-34.807z" opacity="1"/><rect x="321.21" y="403.92" width="10.483" height="7.0026" opacity="1"/><rect x="368.14" y="425.98" width="10.537" height="19.748" opacity="1"/><rect id="room158" x="387.89" y="357.46" width="30.845" height="91.881" opacity="1"/><path d="m418.74 357.46v91.881h14.643v-5.4402h-4.7037v-86.441z" opacity="1"/><path id="room156" d="m428.68 357.46h11.988c4.8714-2.2973 9.5369-3.9427 14.184-4.9364 4.487-0.9594 8.957-1.3112 13.579-1.0554 4.36 0.24133 8.8552 1.0234 13.627 2.3462 4.3321 1.2008 8.8923 2.8473 13.787 4.9393v85.147h-67.165z" opacity="1"/><path id="room156A" d="m495.84 358.76c4.7822 2.5362 9.3533 5.4101 13.618 8.526 4.2008 3.0694 8.104 6.3737 11.618 9.8213v33.067h-25.236z" opacity="1"/><path id="room154C" d="m495.84 410.17v40.867h12.951v-16.17h12.285v-24.697z" opacity="1"/><rect id="room154Z" x="508.79" y="434.87" width="9.0294" height="16.17" opacity="1"/><rect id="room152Z" x="517.82" y="434.87" width="3.2552" height="16.17" opacity="1"/><rect id="room154Y" x="521.08" y="423.14" width="13.037" height="6.5204" opacity="1"/><rect id="room152" x="521.08" y="429.66" width="13.037" height="21.379" opacity="1"/><rect id="room150" x="534.11" y="423.14" width="37.649" height="27.9" opacity="1"/></g><rect id="room150A" x="571.76" y="423.14" width="17.846" height="27.9" opacity="1" stroke-width=".60267"/><g stroke-width=".60238"><rect id="room148" x="569.89" y="474.04" width="30.332" height="39.794" opacity="1"/><rect id="room146" x="569.89" y="513.83" width="30.332" height="27.899" opacity="1"/><path d="m471.5 479.15v45.331h57.593v-38.334h-41.833v-6.9968z" opacity="1"/><rect id="room153" x="487.26" y="460.83" width="50.352" height="25.312" opacity="1"/><rect id="room153Z" x="529.09" y="486.15" width="13.338" height="14.758" opacity="1"/><rect id="room153Y" x="542.43" y="486.15" width="14.758" height="14.758" opacity="1"/><rect x="537.61" y="468.67" width="9.638" height="17.481" opacity="1"/><rect id="room151" x="529.09" y="500.91" width="28.096" height="8.7345" opacity="1"/><rect id="room149" x="529.09" y="509.64" width="28.096" height="44.085" opacity="1"/><rect id="room147" x="485.81" y="524.48" width="43.281" height="29.244" opacity="1"/><rect x="471.5" y="524.48" width="14.312" height="16.423" opacity="1"/><rect x="471.5" y="540.9" width="14.312" height="12.821" opacity="1"/><path id="room145" d="m439.85 495.12v41.285h23.002v17.317h8.6462v-58.602z" opacity="1"/><path d="m447.05 472.9v22.223h24.449v-15.972h2.6401v-6.2508h-2.6401z" opacity="1"/><rect id="room155A" x="459.97" y="459.8" width="14.166" height="13.104" opacity="1"/><rect x="443.38" y="536.41" width="19.474" height="17.317" opacity="1"/><path id="room161A" d="m432.09 511.47v14.584h-25.403v10.35h33.166v-24.934z" opacity="1"/><path id="room155" d="m447.05 472.9v22.223h24.449v-15.972h2.6401v-6.2508h-2.6401z" opacity="1"/><rect id="room157" x="421.72" y="481.75" width="18.133" height="18.362" opacity="1"/><rect id="room159Z" x="421.72" y="500.11" width="10.37" height="11.361" opacity="1"/><rect id="room157Z" x="432.09" y="500.11" width="7.7627" height="11.361" opacity="1"/><rect x="421.72" y="511.47" width="10.37" height="14.584" opacity="1"/><rect id="room159" x="406.75" y="492.51" width="14.969" height="14.918" opacity="1"/><rect id="room161" x="406.75" y="507.43" width="14.969" height="18.627" opacity="1"/><rect x="406.69" y="536.41" width="19.576" height="17.317" opacity="1"/><rect x="547.25" y="468.67" width="9.9392" height="17.481" opacity="1"/><rect id="room163X" x="363.84" y="490.02" width="11.643" height="5.1561" opacity="1"/><rect id="room163Y" x="363.84" y="477.71" width="11.643" height="12.308" opacity="1"/><rect id="room163Z" x="363.84" y="456.92" width="11.643" height="20.791" opacity="1"/><rect id="room163W" x="363.84" y="531.05" width="11.643" height="18.629" opacity="1"/><path id="room143" d="m241.86 477.94v46.901h23.281v-4.2755h7.2179v-39.785h-7.2179v-2.8408z" opacity="1"/><rect id="room141" x="218.24" y="510.64" width="23.624" height="14.206" opacity="1"/><rect id="room167" x="218.47" y="477.94" width="23.388" height="13.03" opacity="1"/><rect x="225.39" y="490.97" width="16.465" height="9.535" opacity="1"/><rect x="225.39" y="500.51" width="16.465" height="10.131" opacity="1"/><rect x="218.47" y="490.97" width="6.923" height="19.666" opacity="1"/><rect id="room169Z" x="165.91" y="476.95" width="16.07" height="19.35" opacity="1"/><rect x="181.98" y="496.3" width="36.254" height="8.5902" opacity="1"/><rect id="room139Z" x="165.91" y="504.89" width="16.07" height="19.406" opacity="1"/><rect x="163.79" y="455.07" width="18.187" height="15.76" opacity="1"/><rect id="room139A" x="163.32" y="529.82" width="18.658" height="17.289" opacity="1"/><rect id="room169B" x="141.68" y="476.95" width="20.539" height="22.643" opacity="1"/><rect x="141.68" y="499.59" width="20.539" height="24.703" opacity="1"/><rect id="room137E" x="141.68" y="460.25" width="15.054" height="10.585" opacity="1"/><rect id="room137A" x="141.68" y="529.82" width="14.189" height="17.289" opacity="1"/><path id="room169" d="m141.68 455.07 2.6e-4 44.519 40.298 2e-5 9e-5 -3.2931 36.254 3e-5v-18.353h10.547v-22.873z" opacity="1"/><path id="room139" d="m162.22 499.59-20.539-2e-5v47.519s41.52 2.1e-4 84.369 2.1e-4v-22.263h-7.8168v-19.96l-36.254 4.2e-4 -9e-5 -5.2971z" opacity="1"/><rect id="room139B" x="141.68" y="499.59" width="20.539" height="24.703" opacity="1"/><rect x="134.63" y="541.17" width="7.0566" height="5.9393" opacity="1"/><rect x="134.63" y="499.59" width="7.0564" height="24.703" opacity="1"/><rect x="134.63" y="524.29" width="7.0566" height="16.877" opacity="1"/><rect id="room137D" x="134.63" y="476.95" width="7.0566" height="22.643" opacity="1"/><rect id="room137C" x="134.63" y="499.59" width="7.0564" height="24.703" opacity="1"/><rect x="134.63" y="460.25" width="7.0564" height="16.701" opacity="1"/><rect x="134.63" y="455.07" width="7.0564" height="5.1749" opacity="1"/><path id="room144" d="m503.81 581.49c2.8244-1.3949 5.5712-2.421 8.2505-3.1267 3.4688-0.91364 6.8245-1.2901 10.089-1.2341 2.9762 0.051 5.8767 0.46148 8.7182 1.152 3.1404 0.76317 6.2088 1.8685 9.2276 3.2088v106.07h-36.286z" opacity="1"/><rect id="room144A" x="522.27" y="606.24" width="17.823" height="12.142" opacity="1"/><rect id="room144D" x="522.27" y="652.98" width="17.823" height="10.697" opacity="1"/><rect id="room144E" x="522.27" y="663.67" width="17.823" height="11.323" opacity="1"/><rect id="room144F" x="522.27" y="675" width="17.823" height="12.572" opacity="1"/><rect id="room144K" x="503.81" y="606.24" width="14.411" height="13.639" opacity="1"/><rect id="room144J" x="503.81" y="619.88" width="14.411" height="23.11" opacity="1"/><rect x="503.81" y="642.99" width="2.5836" height="10.554" opacity="1"/><rect id="room144G" x="503.81" y="653.54" width="14.411" height="24.02" opacity="1"/><rect id="room144H" x="506.4" y="648.63" width="11.828" height="4.9131" opacity="1"/><rect id="room144I" x="506.4" y="642.99" width="11.828" height="5.641" opacity="1"/><rect id="room107A" x="481.16" y="716.84" width="8.8247" height="15.914" opacity="1"/><rect id="room107J" x="473.44" y="700.88" width="16.545" height="10.253" opacity="1"/><rect id="room107I" x="463.66" y="700.88" width="9.779" height="10.253" opacity="1"/><rect id="room107H" x="453.37" y="700.88" width="10.294" height="10.253" opacity="1"/><rect id="room111" x="435.35" y="700.88" width="18.014" height="10.253" opacity="1"/><rect x="416.05" y="700.88" width="19.301" height="10.253" opacity="1"/><rect id="room107B" x="471.9" y="716.84" width="9.2643" height="15.914" opacity="1"/><rect id="room107C" x="462.89" y="716.84" width="9.0069" height="15.914" opacity="1"/><rect id="room107D" x="453.37" y="716.84" width="9.5216" height="15.914" opacity="1"/><rect id="room107E" x="445.13" y="716.84" width="8.2349" height="15.914" opacity="1"/><rect id="room107F" x="435.61" y="716.84" width="9.5216" height="15.914" opacity="1"/><rect id="room107G" x="425.83" y="716.84" width="9.779" height="15.914" opacity="1"/><rect x="419.91" y="726.36" width="5.9189" height="6.3926" opacity="1"/><rect x="419.91" y="716.84" width="5.9189" height="9.5216" opacity="1"/><rect id="room115A" x="410.39" y="716.84" width="9.5216" height="15.914" opacity="1"/><rect id="room115B" x="397.01" y="716.84" width="13.382" height="15.914" opacity="1"/><rect id="room117" x="323.93" y="700.88" width="22.118" height="31.87" opacity="1"/></g></g><path id="room107" d="m489.99 732.75v-5.37h15.74l10.022-10.022-22.406-19.949-3.3558 3.4717h-54.632v10.252h-9.5216v15.224h-5.9189v6.3926z" stroke-width=".60238px"/><path id="room105" d="m493.34 697.41 10.47-9.8415h28.147v13.579l-16.211 16.211z" stroke-width=".60238px"/><g stroke-linecap="round" stroke-width=".60238"><rect id="room140" x="381.53" y="574.58" width="40.289" height="30.205" opacity="1"/><rect id="room138D" x="381.53" y="604.78" width="21.364" height="12.01" opacity="1"/><rect x="402.89" y="604.78" width="11.282" height="12.01" opacity="1"/><rect id="room138S" x="381.53" y="616.79" width="14.995" height="14.012" opacity="1"/><rect id="room138C" x="396.52" y="616.79" width="17.651" height="14.012" opacity="1"/><rect id="room138" x="381.53" y="630.8" width="32.646" height="16.599" opacity="1"/><rect id="room138B" x="401.6" y="647.4" width="12.573" height="11.452" opacity="1"/><rect id="room138A" x="381.53" y="647.4" width="20.073" height="11.452" opacity="1"/><rect id="room114" x="398" y="658.85" width="23.032" height="31.782" opacity="1"/><rect id="room112" x="421.03" y="658.85" width="24.061" height="31.782" opacity="1"/><rect id="room110" x="445.09" y="658.85" width="23.289" height="31.782" opacity="1"/><path d="m472.75 649.39v9.4627h-4.3672v16.469h28.179v-25.932z" opacity="1"/><rect x="468.38" y="675.32" width="4.1853" height="15.312" opacity="1"/><path id="room106" d="m472.57 675.32h21.034v8.2349l-6.6173 7.0769h-14.417z" opacity="1"/><rect id="room102" x="472.75" y="635.2" width="23.812" height="14.194" opacity="1"/><rect id="room100B" x="472.75" y="625.71" width="8.3444" height="9.4896" opacity="1"/><rect id="room100Z" x="481.09" y="629.17" width="7.4607" height="6.0322" opacity="1"/><rect id="room100Y" x="488.55" y="629.17" width="8.0066" height="6.0322" opacity="1"/><rect id="room142" x="434.48" y="574.58" width="18.817" height="30.205" opacity="1"/><rect id="room142B" x="421.82" y="595.32" width="12.664" height="9.4605" opacity="1"/><rect id="room142A" x="421.82" y="574.58" width="12.664" height="20.744" opacity="1"/><rect id="room142C" x="453.3" y="582.4" width="9.8263" height="22.38" opacity="1"/><rect id="room142S" x="453.3" y="574.58" width="9.8263" height="7.8246" opacity="1"/><rect id="room119" x="300.76" y="700.88" width="23.161" height="31.87" opacity="1"/><rect id="room121" x="278.12" y="700.88" width="22.646" height="31.87" opacity="1"/><rect id="room123" x="256.24" y="700.88" width="21.874" height="31.87" opacity="1"/><rect id="room125" x="230.12" y="700.88" width="26.12" height="31.87" opacity="1"/><rect id="room115Z" x="397.01" y="700.88" width="10.036" height="10.253" opacity="1"/><rect id="room116" x="324.39" y="658.85" width="20.837" height="31.782" opacity="1"/><rect x="345.23" y="658.85" width="16.741" height="19.044" opacity="1"/><rect id="room136" x="332.85" y="636.29" width="29.115" height="22.564" opacity="1"/><rect id="room134" x="332.85" y="613.13" width="29.115" height="23.161" opacity="1"/><rect id="room118" x="302" y="658.85" width="22.389" height="31.782" opacity="1"/><rect id="room120" x="279.36" y="658.85" width="22.646" height="31.782" opacity="1"/><rect id="room122" x="255.68" y="658.85" width="23.675" height="31.782" opacity="1"/><rect id="room124" x="230.98" y="658.85" width="24.705" height="31.782" opacity="1"/><rect x="194.35" y="665.55" width="8.7452" height="12.49" opacity="1"/><path d="m194.35 658.85v6.6908h8.7451v5.9191h22.388v-12.61h-22.388z" opacity="1"/><path d="m203.09 671.46v6.5708h-8.7451v6.1767h31.133v-12.748z" opacity="1"/><rect id="room126" x="189.8" y="636.71" width="29.594" height="22.14" opacity="1"/><rect id="room126A" x="189.8" y="613.13" width="29.594" height="23.585" opacity="1"/><path id="room128B" d="m195.21 560.63v44.519h-5.4049v7.978h38.087v-40.403h-26.249v-12.095z" opacity="1"/><rect x="227.89" y="600.52" width="15.926" height="12.61" opacity="1"/><rect x="227.89" y="584.05" width="15.926" height="16.47" opacity="1"/><rect x="227.89" y="572.73" width="15.926" height="11.323" opacity="1"/><rect x="227.89" y="556" width="15.926" height="16.727" opacity="1"/><rect id="room128" x="169.73" y="594.09" width="25.477" height="11.065" opacity="1"/><rect x="195.21" y="556" width="6.4332" height="4.6322" opacity="1"/><rect id="room128C" x="201.64" y="556" width="26.249" height="16.727" opacity="1"/><rect x="184.91" y="585.85" width="10.294" height="8.2349" opacity="1"/><rect x="184.91" y="578.9" width="10.294" height="6.9482" opacity="1"/><rect x="184.91" y="572.73" width="10.294" height="6.1762" opacity="1"/><rect id="room128B.3" x="183.63" y="556" width="11.58" height="16.727" opacity="1"/><rect id="room128A.4" x="169.73" y="556" width="13.896" height="16.727" opacity="1"/><path id="roomEC6" d="m134.22 562.58 6.1637-6.576h29.349v9.0065h-35.513z" opacity="1"/><path id="room128A" d="m134.22 565.01v40.145h35.513v-11.065h15.183v-21.36h-15.183v-7.7203z" opacity="1"/><rect id="room130A" x="243.81" y="556" width="31.91" height="28.05" opacity="1"/><rect id="room130B" x="243.81" y="584.05" width="31.91" height="29.08" opacity="1"/><path id="room130C" d="m275.72 556-1.5e-4 33.711v23.419h22.131v-23.419h-7.978l1.5e-4 -33.711z" opacity="1"/><rect x="297.86" y="589.71" width="23.933" height="23.419" opacity="1"/><rect id="room132" x="289.88" y="556" width="60.476" height="33.711" opacity="1"/><rect x="321.79" y="589.71" width="6.1762" height="7.4635" opacity="1"/><rect x="321.79" y="597.17" width="6.1762" height="7.4629" opacity="1"/><rect x="327.96" y="589.71" width="14.154" height="14.926" opacity="1"/><rect x="342.12" y="589.71" width="8.235" height="14.926" opacity="1"/><rect x="11.495" y="617.2" width="12.412" height="13.861" opacity="1"/><rect x="11.495" y="631.06" width="12.412" height="8.7345" opacity="1"/><rect x="11.495" y="647.8" width="12.412" height="8.1886" opacity="1"/><rect x="11.495" y="655.99" width="12.412" height="20.017" opacity="1"/><rect x="11.495" y="684.92" width="12.412" height="6.3689" opacity="1"/><rect x="11.495" y="691.29" width="12.412" height="8.3724" opacity="1"/></g><g stroke-width=".60238px"><path id="room127C" d="m179.88 726.45-3.5e-4 -6.2082h-13.808l-3.5889 6.2161z"/><path id="room127B" d="m166.07 720.25 5.6485-9.7835h8.1601v9.7835z"/><path id="room127A" d="m171.72 710.46 3.355-5.8111h4.8051v5.8111"/><path id="room127" d="m30.46 611.18h128.16l11.198 41.792v22.029l-10.662 39.793h-128.69z"/><path d="m158.62 611.18 1.9864 7.413h-23.989l-5.6718-7.413z"/><path id="room127G" d="m160.6 618.59 3.0313 11.313h-7.5911l2.628 9.808-4.4856 1.2019-6.4292-22.323z"/><path id="room127F" d="m163.63 629.9 6.1804 23.065-10.866 2.9116-4.7627-14.967 4.4856-1.2019-2.628-9.8081z"/><path d="m159.15 714.79 1.7274-6.4464h-23.494l-1.7498 6.4464z"/><path id="room127D" d="m160.88 708.35 2.8682-10.704-7.4063-1.9845 2.4113-8.9992-4.3742-1.1721-6.15 22.86z"/><path id="room127E" d="m163.75 697.64 6.0669-22.642-11.756-3.15-3.6802 13.636 4.3742 1.1721-2.4113 8.9992z"/></g><g stroke-linecap="round" stroke-width=".60238"><rect x="452.18" y="459.8" width="7.7938" height="13.104" opacity="1"/><rect x="440.88" y="472.9" width="6.1701" height="4.2001" opacity="1"/><rect x="587.88" y="541.73" width="12.345" height="14.238" opacity="1"/><rect x="592.03" y="461.65" width="8.1997" height="12.384" opacity="1"/><rect x="381.4" y="716.84" width="15.615" height="7.1884" opacity="1"/><rect x="346.04" y="716.84" width="13.882" height="7.1846" opacity="1"/><rect x="397.01" y="711.13" width="3.8523" height="5.7025" opacity="1"/><rect x="345.23" y="684.44" width="8.1517" height="6.1934" opacity="1"/><rect x="345.23" y="677.9" width="8.1517" height="6.5443" opacity="1"/><rect x="217" y="714.06" width="13.127" height="7.8297" opacity="1"/></g><path d="m189.8 658.85-3.7e-4 5.6585" stroke-width=".60238px"/><path d="m194.35 684.21-4.5463-1.8e-4v-6.2651" stroke-width=".60238px"/><g stroke-linecap="round" stroke-width=".60238"><rect x="236.95" y="530.96" width="6.8639" height="7.0872" opacity="1"/><rect x="243.81" y="530.96" width="7.5921" height="7.0872" opacity="1"/><rect x="251.41" y="530.96" width="8.3477" height="13.746" opacity="1"/><rect id="room165" x="254.27" y="455.79" width="9.2551" height="14.295" opacity="1"/><rect x="179.57" y="438.63" width="4.8735" height="7.1022" opacity="1"/><rect x="381.53" y="658.85" width="16.47" height="19.044" opacity="1"/><rect x="389.43" y="684.44" width="8.5728" height="6.1934" opacity="1"/><rect x="389.43" y="677.9" width="8.5728" height="6.5443" opacity="1"/></g><path d="m353.38 690.64h8.5894" stroke-width=".60238px"/><path d="m389.43 690.64h-7.897" stroke-width=".60238px"/><rect x="350.35" y="600.27" width="12.503" height="4.3723" opacity="1" stroke-linecap="round" stroke-width=".60238"/><path id="room115" d="m416.05 700.88v10.253l9.779-3.5e-4v15.224h-5.9189v6.3926h-22.903v-15.914h3.8523v-5.7025h-3.8523v-10.253z" stroke-width=".60238px"/><g stroke-linecap="round" stroke-width=".60238"><rect x="414.18" y="604.78" width="58.574" height="54.072" opacity="1"/><rect x="219.4" y="613.13" width="113.46" height="45.725" opacity="1"/><rect id="room144C" x="522.27" y="636.44" width="17.823" height="16.537" opacity="1"/><rect id="room144B" x="522.27" y="618.38" width="17.823" height="18.059" opacity="1"/><rect id="roomBSC3" x="426.26" y="536.41" width="17.118" height="4.6877" opacity="1"/><rect id="roomEC5" x="184.45" y="414.27" width="36.047" height="9.6291" opacity="1"/><rect id="room166S" x="231.61" y="431.95" width="16.165" height="13.778" opacity="1"/><rect x="291.85" y="394.25" width="17.113" height="16.671" opacity="1"/><rect id="roomBSC2EC3" x="543.78" y="460.83" width="6.8777" height="7.8309" opacity="1"/><rect id="room174" x="184.45" y="375.24" width="36.047" height="39.031" opacity="1"/></g><path d="m120.01 468.5v64.449" stroke-width=".60238px"/><g stroke-linecap="round" stroke-width=".60238"><rect x="141.68" y="455.07" width="15.054" height="5.1749" opacity="1"/><rect x="575.17" y="467.97" width="16.857" height="6.0695" opacity="1"/><rect id="room146S" x="569.89" y="538.35" width="2.973" height="3.3815" opacity="1"/><rect x="237.05" y="464.41" width="10.716" height="5.0229" opacity="1"/><rect id="room163" x="272.36" y="456.92" width="103.12" height="92.759" opacity="1"/><rect x="214.58" y="684.21" width="4.5428" height="4.597" opacity="1"/></g></g><g stroke="#000100" stroke-linecap="round" stroke-width=".60267"><path id="room1313" d="m572.08 354.23 38.232-12.767 9.0634 27.141-38.44 12.145z"/><path id="room1312" d="m572.08 354.23 38.232-12.767-9.0634-27.141-38.232 12.767z"/><path id="room1311" d="m509 298.87 25.821-12.747 17.843 36.143-25.821 12.747z" enable-background="new"/><path id="room1310" d="m509 298.87 17.843 36.143-25.495 12.587-17.843-36.143z" enable-background="new"/></g><rect id="roomx100" x="572.88" y="555.97" width="15" height="15.852" enable-background="new" opacity="1" stroke="#000" stroke-linecap="round" stroke-width=".60238"/><path d="m540.1 596.59 3.7e-4 -9.0213h22.468l16.303-15.749h9.0131l-1e-5 6.6168-20.025 18.153z" stroke="#000100" stroke-linecap="round" stroke-width=".60267"/></g><g transform="translate(-10.592 -285.22)" fill="none" stroke="#000"><g stroke-width=".60238px"><path d="m474.05 591.32v-16.744h-10.928l2.7e-4 23.113h22.756l6e-5 -22.2"/><path d="m485.88 579.14h-22.756"/><path d="m485.88 581.16h-22.756"/><path d="m485.88 583.17h-22.756"/><path d="m485.88 585.19h-22.756"/><path d="m485.88 587.21h-22.756"/><path d="m485.88 589.22h-22.756"/><path d="m485.88 591.24h-22.756"/><path d="m575.17 461.65 16.839 2.5e-4v6.3144h-16.839"/><path d="m590.13 461.66v6.3144"/><path d="m588.29 461.66v6.3144"/><path d="m586.46 461.66v6.3144"/><path d="m584.63 461.66v6.3144"/><path d="m582.8 461.66v6.3144"/><path d="m580.96 461.66v6.3144"/><path d="m579.13 461.66v6.3144"/><path d="m577.3 461.66v6.3144"/><path d="m452.18 466.37h-11.299v6.5269l11.3 6e-5 -3.6e-4 -13.104-11.622 1.8e-4 11.622-1.8e-4"/><path d="m450.03 459.8v13.104"/><path d="m447.98 459.8v13.104"/><path d="m445.94 459.8v13.104"/><path d="m443.89 459.8v13.104"/><path d="m587.88 548.69h-15l7e-5 -6.9611 15 2.1e-4 3.1e-4 14.238-15-1.1e-4"/><path d="m585.98 541.73v14.238"/><path d="m584.12 541.73v14.238"/><path d="m582.25 541.73v14.238"/><path d="m580.38 541.73v14.238"/><path d="m578.52 541.73v14.238"/><path d="m576.65 541.73v14.238"/><path d="m574.78 541.73v14.238"/><path d="m388.72 716.84v-10.159l8.2895 1.6e-4 9e-5 10.16-15.615-3.7e-4 9e-5 -10.159"/><path d="m397.01 714.48h-15.614"/><path d="m397.01 711.79h-15.614"/><path d="m397.01 709.09h-15.614"/><path d="m214.58 684.21v4.5972l-5.7773-1.8e-4v10.782h8.1994l2.8e-4 22.296"/><path d="m217 699.59v-10.782l-8.0688 1.7e-4"/><path d="m214.97 699.59v-10.781"/><path d="m212.94 699.59v-10.95"/><path d="m210.91 699.57v-10.781"/><path d="m236.95 538.05-7e-5 17.951h6.864v-17.951z"/><path d="m243.93 547.61h-6.9755"/><path d="m242.08 556v-17.951"/><path d="m240.38 556v-17.951"/><path d="m238.67 556v-17.951"/><path d="m237.09 469.44v8.509"/><path d="m239.23 469.44v8.509"/><path d="m243.5 469.44v8.509"/><path d="m245.64 469.44v8.509"/><path d="m247.77 469.44v8.509"/><path d="m241.36 469.44v8.509"/><path d="m179.57 440.4-7.348 1e-5"/><path d="m179.57 442.18-7.348 1e-5"/><path d="m179.57 445.73-7.348 1e-5"/><path d="m179.57 438.63-7.348 1e-5"/></g><path d="m179.57 443.95-7.348 1e-5" stroke-width=".60333"/><g stroke-width=".60238px"><path d="m247.77 455.07v-9.3415"/><path d="m368.14 418.73h10.537l-6e-4 7.2572h-10.537l2.8e-4 -15.059h10.538"/><path d="m376.81 425.98 6e-4 -15.059"/><path d="m374.63 425.98 6e-4 -15.059"/><path d="m372.45 425.98 6.1e-4 -15.059"/><path d="m370.27 425.98 6e-4 -15.059"/><path d="m374.81 385.62 13.086-3.4e-4"/><path d="m374.81 387.78 13.086-3.4e-4"/><path d="m374.81 389.93 13.086-3.4e-4"/><path d="m374.81 394.25 13.086-3.4e-4"/><path d="m374.81 383.46 13.086-3.4e-4"/><path d="m374.81 392.09 13.086-3.4e-4"/><path d="m353.24 716.84v-10.163h-7.2l-4e-5 10.163 13.882-1.7e-4 -1.8e-4 -10.106"/><path d="m359.93 708.86h-13.882"/><path d="m359.93 714.37h-13.882"/><path d="m359.93 711.61h-13.882"/><path d="m217 706.68h13.127"/><path d="m217 709.2h13.127"/><path d="m217 711.73h13.127"/><path d="m362.86 578.3v21.965l-12.503-6e-5v-10.554h6.2406v10.554"/><path d="m350.35 593.91h12.503"/><path d="m350.35 595.94h12.503"/><path d="m350.35 597.97h12.503"/><path d="m350.35 591.88h12.503"/><path d="m346.04 741.42 50.121 1e-5"/><path d="m346.04 744.03 50.121 1e-5"/><path d="m346.04 746.64 50.121 2e-5"/><path d="m237.05 455.07v-9.3415"/><path d="m245.63 455.07v-9.3415"/><path d="m243.48 455.07v-9.3415"/><path d="m241.34 455.07v-9.3415"/><path d="m239.2 455.07v-9.3415"/><path d="m237.09 477.94h10.679"/><path d="m120.01 468.5h4.6624"/><path d="m120.01 473.08h4.6624"/><path d="m120.01 470.79h4.6624"/><path d="m120.01 475.37h4.6624"/><path d="m120.01 477.66h4.6624"/><path d="m120.01 479.95h4.6624"/><path d="m259.75 530.96v-6.1166"/><path d="m251.41 530.96v-6.1166"/><path d="m256.42 530.96v-6.1166"/><path d="m254.75 530.96v-6.1166"/><path d="m253.08 530.96v-6.1166"/><path d="m258.08 530.96v-6.1166"/><path d="m237.05 455.07h10.716"/><path d="m247.77 464.41v-9.3415"/><path d="m237.05 464.41v-9.3415"/><path d="m245.63 464.41v-9.3415"/><path d="m243.48 464.41v-9.3415"/><path d="m241.34 464.41v-9.3415"/><path d="m239.2 464.41v-9.3415"/><path d="m245.6 479.03v8.509" enable-background="new"/><path d="m247.46 479.03v8.509" enable-background="new"/><path d="m249.33 479.03v8.509" enable-background="new"/><path d="m243.73 479.03v8.509" enable-background="new"/><path d="m241.83 479.03h9.6916" enable-background="new"/><path d="m241.86 483.22 9.662-2.9e-4v4.3161h-9.6302" enable-background="new"/></g></g><g transform="translate(-10.592 -285.22)" fill="none" stroke="#000" stroke-linecap="round" stroke-linejoin="round" stroke-width="1.8067"><path d="m520.37 377.02 0.70482 46.122h68.532v38.531h10.617v94.301h-12.345v22.468l-20.025 18.153h-27.759v90.976h-8.1388v13.579l-26.233 26.233h-15.74v5.37l-93.822 2e-4v17.036h-50.121v-17.036h-115.92v-10.864h-50.244v4.5676h-29.504v-4.4442h-96.291l-0.4938 3.58-24.196-0.61725-10.246-7.5304v-17.777h-7.6539v-82.464h9.0118v-44.812l104.16 0.16492v-27.077l-61.696-1e-5 2.49e-4 -13.701c-12.495 0.0945-17.868-56.886 0-63.411v-13.87h57.033v-8.7649l15.431 2e-5v-32.591h36.788l-3e-5 -14.073h12.222v-23.826h36.047v27.159h11.11v5.6787h60.243v-13.826h82.958v-13.579l13.086-3.4e-4v-23.208h52.757c27.211-12.234 54.62-5.2764 79.722 19.554z"/><rect id="room150-6" transform="rotate(71.534 2.0031e-6 1.259e-5)" x="488.58" y="-470.73" width="57.229" height="40.307" enable-background="new"/><rect id="room150-6-5" transform="rotate(153.72 -4.757e-8 6.4144e-6)" x="-352.9" y="-533.62" width="57.229" height="40.307" enable-background="new"/></g><g transform="translate(-10.592 -285.22)" fill="#fff"><rect x="421.71" y="714.9" width="2.2963" height="3.7888"/><rect x="411.72" y="714.78" width="2.2963" height="3.7888"/><rect x="407.02" y="714.67" width="2.2963" height="3.7888"/><rect transform="rotate(90)" x="728.27" y="-427.74" width="2.2963" height="3.7888"/><rect x="432.05" y="714.78" width="2.2963" height="3.7888"/><rect x="437.67" y="715.13" width="2.2963" height="3.7888"/><rect x="449.38" y="714.9" width="2.2963" height="3.7888"/><rect x="454.89" y="714.78" width="2.2963" height="3.7888"/><rect x="468.56" y="714.9" width="2.2963" height="3.7888"/><rect x="473.38" y="714.9" width="2.2963" height="3.7888"/><rect x="482.79" y="714.9" width="2.2963" height="3.7888"/><rect x="475.81" y="709.05" width="2.2963" height="3.7888"/><rect x="467.05" y="709.05" width="2.2963" height="3.7888"/><rect x="457.3" y="709.05" width="2.2963" height="3.7888"/><rect x="448.54" y="709.05" width="2.2963" height="3.7888"/><rect x="443.18" y="698.82" width="2.2963" height="3.7888"/><rect transform="rotate(90)" x="704.89" y="-408.91" width="2.2963" height="3.7888"/><rect transform="rotate(90)" x="704.89" y="-437" width="2.2963" height="3.7888"/><rect transform="rotate(90)" x="712.6" y="-427.8" width="2.2963" height="3.7888"/><rect x="410.34" y="698.87" width="2.2963" height="3.7888"/><rect transform="rotate(-46.548)" x="-171.68" y="835.28" width="4.4441" height="5.8131"/><rect transform="rotate(-46.548)" x="-159.18" y="836.2" width="4.4441" height="5.8131"/><rect transform="rotate(43.106)" x="858.66" y="168.34" width="4.4441" height="5.8131"/><rect x="474.35" y="688.43" width="2.2963" height="3.7888"/><rect transform="rotate(90)" x="679.07" y="-505.84" width="2.2963" height="3.7888"/><rect transform="rotate(90)" x="676.64" y="-524.19" width="2.2963" height="3.7888"/><rect transform="rotate(90)" x="665.27" y="-524.03" width="2.2963" height="3.7888"/><rect transform="rotate(90)" x="659.67" y="-524.11" width="2.2963" height="3.7888"/><rect transform="rotate(90)" x="673.55" y="-520.13" width="2.2963" height="3.7888"/><rect transform="rotate(90)" x="655.04" y="-520.13" width="2.2963" height="3.7888"/><rect transform="rotate(90)" x="649.93" y="-520.13" width="2.2963" height="3.7888"/><rect transform="rotate(90)" x="644.49" y="-520.13" width="2.2963" height="3.7888"/><rect transform="rotate(90)" x="648.88" y="-524.11" width="2.2963" height="3.7888"/><rect transform="rotate(90)" x="620.55" y="-524.11" width="2.2963" height="3.7888"/><rect transform="rotate(90)" x="613.97" y="-524.11" width="2.2963" height="3.7888"/><rect x="524.21" y="616.57" width="2.2963" height="3.7888"/><rect x="504.53" y="640.93" width="1.0293" height="3.7888"/><rect x="509.28" y="604.06" width="2.2963" height="3.7888"/><rect transform="rotate(90)" x="596.86" y="-505.58" width="2.2963" height="3.7888"/><rect transform="rotate(90)" x="586.53" y="-505.58" width="2.2963" height="3.7888"/><rect transform="rotate(17.046)" x="676.83" y="395.2" width="2.2963" height="3.7888"/><rect x="341.57" y="698.82" width="2.2963" height="3.7888"/><rect x="319.76" y="698.82" width="2.2963" height="3.7888"/><rect x="296.57" y="698.82" width="2.2963" height="3.7888"/><rect x="273.95" y="698.82" width="2.2963" height="3.7888"/><rect x="252.48" y="698.82" width="2.2963" height="3.7888"/><rect x="341.57" y="688.68" width="2.2963" height="3.7888"/><rect x="319.76" y="688.68" width="2.2963" height="3.7888"/><rect x="296.57" y="688.84" width="2.2963" height="3.7888"/><rect x="273.95" y="688.76" width="2.2963" height="3.7888"/><rect x="252.48" y="688.59" width="2.2963" height="3.7888"/><rect x="400.7" y="688.77" width="2.2963" height="3.7888"/><rect x="422.62" y="688.77" width="2.2963" height="3.7888"/><rect x="446.49" y="688.77" width="2.2963" height="3.7888"/><rect transform="rotate(90)" x="636.67" y="-498.49" width="2.2963" height="3.7888"/><rect transform="rotate(90)" x="624.96" y="-498.49" width="2.2963" height="3.7888"/><rect x="477.71" y="602.68" width="2.2963" height="3.7888"/><rect x="484.14" y="626.9" width="2.2963" height="3.7888"/><rect x="491.37" y="626.9" width="2.2963" height="3.7888"/><rect transform="rotate(90)" x="626.22" y="-483.14" width="2.2963" height="3.7888"/><rect x="466.26" y="602.68" width="2.2963" height="3.7888"/><rect x="436.75" y="572.71" width="2.2963" height="3.7888"/><rect x="426.79" y="572.71" width="2.2963" height="3.7888"/><rect transform="rotate(90)" x="578.55" y="-455.09" width="2.2963" height="3.7888"/><rect transform="rotate(90)" x="583.6" y="-455.09" width="2.2963" height="3.7888"/><rect transform="rotate(90)" x="578.55" y="-436.26" width="2.2963" height="3.7888"/><rect transform="rotate(90)" x="599.1" y="-436.26" width="2.2963" height="3.7888"/><rect transform="rotate(90)" x="609.21" y="-383.45" width="2.2963" height="3.7888"/><rect transform="rotate(90)" x="649.39" y="-383.45" width="2.2963" height="3.7888"/><rect transform="rotate(90)" x="642.98" y="-383.45" width="2.2963" height="3.7888"/><rect x="384.7" y="645.25" width="2.2963" height="3.7888"/><rect x="384.7" y="628.85" width="2.2963" height="3.7888"/><rect x="409.87" y="628.85" width="2.2963" height="3.7888"/><rect x="404.51" y="645.25" width="2.2963" height="3.7888"/><rect transform="rotate(90)" x="679.59" y="-391.41" width="2.2963" height="3.7888"/><rect transform="rotate(90)" x="686.09" y="-391.41" width="2.2963" height="3.7888"/><rect x="383.24" y="675.94" width="2.2963" height="3.7888"/><rect x="357.75" y="675.94" width="2.2963" height="3.7888"/><rect transform="rotate(90)" x="679.59" y="-355.2" width="2.2963" height="3.7888"/><rect transform="rotate(90)" x="686.09" y="-355.24" width="2.2963" height="3.7888"/><rect transform="rotate(90)" x="638.35" y="-363.8" width="2.2963" height="3.7888"/><rect transform="rotate(90)" x="631.69" y="-363.8" width="2.2963" height="3.7888"/><rect x="330.14" y="602.38" width="2.2963" height="3.7888"/><rect x="323.16" y="602.38" width="2.2963" height="3.7888"/><rect x="300.92" y="611.31" width="2.2963" height="3.7888"/><rect transform="rotate(90)" x="592.4" y="-323.7" width="2.2963" height="3.7888"/><rect x="283.22" y="554.16" width="2.2963" height="3.7888"/><rect transform="rotate(90)" x="560.41" y="-352.28" width="2.2963" height="3.7888"/><rect transform="rotate(90)" x="607.99" y="-323.7" width="2.2963" height="3.7888"/><rect x="270.39" y="554.16" width="2.2963" height="3.7888"/><rect x="247.33" y="554.16" width="2.2963" height="3.7888"/><rect x="249.93" y="581.93" width="2.2963" height="3.7888"/><rect transform="rotate(90)" x="562.36" y="-245.6" width="2.2963" height="3.7888"/><rect transform="rotate(90)" x="576.33" y="-245.6" width="2.2963" height="3.7888"/><rect transform="rotate(90)" x="586.88" y="-245.6" width="2.2963" height="3.7888"/><rect transform="rotate(90)" x="603.28" y="-245.6" width="2.2963" height="3.7888"/><rect x="204.47" y="554.16" width="2.2963" height="3.7888"/><rect transform="rotate(90)" x="567.88" y="-203.54" width="2.2963" height="3.7888"/><rect transform="rotate(90)" x="567.88" y="-197.05" width="2.2963" height="3.7888"/><rect transform="rotate(90)" x="567.88" y="-185.22" width="2.2963" height="3.7888"/><rect x="171.63" y="570.81" width="2.2963" height="3.7888"/><rect x="174.27" y="591.93" width="2.2963" height="3.7888"/><rect x="178.29" y="603.3" width="2.2963" height="3.7888"/><rect transform="rotate(90)" x="597.73" y="-196.93" width="2.2963" height="3.7888"/><rect transform="rotate(90)" x="651.92" y="-191.65" width="2.2963" height="3.7888"/><rect transform="rotate(90)" x="659.78" y="-196.04" width="2.2963" height="3.7888"/><rect transform="rotate(90)" x="678.39" y="-196.04" width="2.2963" height="3.7888"/><rect transform="rotate(90)" x="616.2" y="-191.65" width="2.2963" height="3.7888"/><rect transform="rotate(90)" x="694.68" y="-25.649" width="2.2963" height="3.7888"/><rect transform="rotate(90)" x="687.05" y="-25.649" width="2.2963" height="3.7888"/><rect transform="rotate(90)" x="671.54" y="-25.649" width="2.2963" height="3.7888"/><rect x="13.217" y="653.93" width="2.2963" height="3.7888"/><rect x="13.217" y="629" width="2.2963" height="3.7888"/><rect transform="rotate(90)" x="618.69" y="-25.649" width="2.2963" height="3.7888"/><rect transform="rotate(90)" x="658.19" y="-170.7" width="11.757" height="3.2508"/><rect x="102.79" y="601.68" width="2.2963" height="3.7888"/><rect x="95.319" y="601.68" width="2.2963" height="3.7888"/><rect x="147.44" y="545.22" width="2.2963" height="3.7888"/><rect x="167.62" y="522.45" width="2.2963" height="3.7888"/><rect x="167.62" y="475.2" width="2.2963" height="3.7888"/><rect x="220.2" y="488.75" width="2.2963" height="3.7888"/><rect x="220.2" y="508.27" width="2.2963" height="3.7888"/><rect x="236.28" y="508.27" width="2.2963" height="3.7888"/><rect x="236.28" y="488.98" width="2.2963" height="3.7888"/><rect x="231.45" y="522.97" width="2.2963" height="3.7888"/><rect x="231.45" y="476.12" width="2.2963" height="3.7888"/><rect transform="rotate(90)" x="531.14" y="-136.77" width="2.2963" height="3.7888"/><rect transform="rotate(90)" x="501.98" y="-136.77" width="2.2963" height="3.7888"/><rect transform="rotate(90)" x="494.31" y="-136.77" width="2.2963" height="3.7888"/><rect transform="rotate(90)" x="469.63" y="-136.77" width="2.2963" height="3.7888"/><rect transform="rotate(90)" x="472.76" y="-143.53" width="2.2963" height="3.7888"/><rect transform="rotate(90)" x="526.19" y="-143.51" width="2.2963" height="3.7888"/><rect x="267.5" y="478.88" width="2.2963" height="3.7888"/><rect x="267.5" y="518.5" width="2.2963" height="3.7888"/><rect transform="rotate(90)" x="476.18" y="-274.4" width="2.2963" height="3.7888"/><rect transform="rotate(90)" x="522.79" y="-274.4" width="2.2963" height="3.7888"/><rect x="368.66" y="528.89" width="2.2963" height="3.7888"/><rect x="368.66" y="493.01" width="2.2963" height="3.7888"/><rect transform="rotate(90)" x="483.65" y="-365.49" width="2.2963" height="3.7888"/><rect transform="rotate(90)" x="434.56" y="-174.05" width="2.2963" height="3.7888"/><rect x="195.4" y="443.74" width="2.2963" height="3.7888"/><rect x="214.92" y="443.74" width="2.2963" height="3.7888"/><rect x="224.56" y="443.74" width="2.2963" height="3.7888"/><rect x="253.04" y="443.74" width="2.2963" height="3.7888"/><rect x="249.82" y="420.55" width="2.2963" height="3.7888"/><rect x="256.71" y="420.55" width="2.2963" height="3.7888"/><rect transform="rotate(90)" x="427.67" y="-249.37" width="2.2963" height="3.7888"/><rect transform="rotate(90)" x="427.67" y="-263.38" width="2.2963" height="3.7888"/><rect transform="rotate(90)" x="440.3" y="-249.37" width="2.2963" height="3.7888"/><rect transform="rotate(90)" x="440.3" y="-262.92" width="2.2963" height="3.7888"/><rect x="283.12" y="443.74" width="2.2963" height="3.7888"/><rect x="283.12" y="418.03" width="2.2963" height="3.7888"/><rect x="297.36" y="443.74" width="2.2963" height="3.7888"/><rect transform="rotate(90)" x="441.34" y="-323.77" width="2.2963" height="3.7888"/><rect transform="rotate(90)" x="411.58" y="-300.35" width="17.578" height="3.1199"/><rect x="317.22" y="409.19" width="2.2963" height="3.7888"/><rect transform="rotate(90)" x="397.5" y="-310.78" width="2.2963" height="3.7888"/><rect transform="rotate(90)" x="502.71" y="-408.66" width="2.2963" height="3.7888"/><rect transform="rotate(90)" x="502.71" y="-423.43" width="2.2963" height="3.7888"/><rect x="424.35" y="479.86" width="2.2963" height="3.7888"/><rect transform="rotate(90)" x="521.22" y="-408.66" width="2.2963" height="3.7888"/><rect transform="rotate(90)" x="521.22" y="-423.76" width="2.2963" height="3.7888"/><rect transform="rotate(90)" x="542.81" y="-445.19" width="2.2963" height="3.7888"/><rect transform="rotate(90)" x="542.81" y="-428.14" width="2.2963" height="3.7888"/><rect x="442.21" y="493.01" width="2.2963" height="3.7888"/><rect x="465.92" y="551.62" width="2.2963" height="3.7888"/><rect transform="rotate(90)" x="526.25" y="-473.6" width="2.2963" height="3.7888"/><rect transform="rotate(90)" x="526.25" y="-487.57" width="2.2963" height="3.7888"/><rect x="490.11" y="551.62" width="2.2963" height="3.7888"/><rect x="521.77" y="551.62" width="2.2963" height="3.7888"/><rect transform="rotate(90)" x="547.85" y="-559.34" width="2.2963" height="3.7888"/><rect transform="rotate(90)" x="513.42" y="-559.34" width="2.2963" height="3.7888"/><rect transform="rotate(90)" x="503.84" y="-559.34" width="2.2963" height="3.7888"/><rect x="532" y="507.62" width="2.2963" height="3.7888"/><rect x="532" y="498.85" width="2.2963" height="3.7888"/><rect transform="rotate(90)" x="473.79" y="-448.8" width="2.2963" height="3.7888"/><rect transform="rotate(90)" x="474.44" y="-476.07" width="2.2963" height="3.7888"/><rect x="466.4" y="470.6" width="2.2963" height="3.7888"/><rect x="479.39" y="477.42" width="2.2963" height="3.7888"/><rect transform="rotate(90)" x="496.04" y="-544.41" width="2.2963" height="3.7888"/><rect x="532" y="484.08" width="2.2963" height="3.7888"/><rect x="528.59" y="458.91" width="2.2963" height="3.7888"/><rect x="492.55" y="458.91" width="2.2963" height="3.7888"/><rect x="539.31" y="466.54" width="2.2963" height="3.7888"/><rect x="552.78" y="466.54" width="2.2963" height="3.7888"/><rect transform="rotate(90)" x="535.7" y="-571.74" width="2.2963" height="3.7888"/><rect transform="rotate(90)" x="506.99" y="-571.74" width="2.2963" height="3.7888"/><rect transform="rotate(90)" x="478.06" y="-571.74" width="2.2963" height="3.7888"/><rect x="554.39" y="449.32" width="2.2963" height="3.7888"/><rect x="527.07" y="449.32" width="2.2963" height="3.7888"/><rect x="499.74" y="449.32" width="2.2963" height="3.7888"/><rect transform="rotate(90)" x="426" y="-573.57" width="2.2963" height="3.7888"/><rect transform="rotate(90)" x="431.74" y="-535.91" width="2.2963" height="3.7888"/><rect transform="rotate(90)" x="425.08" y="-523.05" width="2.2963" height="3.7888"/><rect transform="rotate(90)" x="436.79" y="-523.05" width="2.2963" height="3.7888"/><rect transform="rotate(90)" x="440.7" y="-510.66" width="2.2963" height="3.7888"/><rect transform="rotate(90)" x="384.32" y="-497.57" width="2.2963" height="3.7888"/><rect x="438.66" y="442.2" width="2.2963" height="3.7888"/><rect x="485.73" y="442.2" width="2.2963" height="3.7888"/><rect x="62.942" y="601.68" width="2.2963" height="3.7888"/><rect x="55.824" y="601.68" width="2.2963" height="3.7888"/><rect transform="rotate(75)" x="652.34" y="2.6674" width="2.2963" height="3.7888"/><rect transform="rotate(75)" x="646.86" y="3.1601" width="2.2963" height="3.7888"/><rect transform="rotate(105)" x="628.11" y="-340.62" width="2.2963" height="3.7888"/><rect transform="rotate(105)" x="632.58" y="-340.81" width="2.2963" height="3.7888"/><rect transform="rotate(120)" x="524.24" y="-505.8" width="2.2963" height="3.7888"/><rect transform="rotate(120)" x="530.71" y="-505.49" width="2.2963" height="3.7888"/><rect transform="rotate(120)" x="542.63" y="-505.41" width="2.2963" height="3.7888"/><rect transform="rotate(90)" x="418.37" y="-186.45" width="2.2963" height="3.7888"/><rect transform="rotate(90)" x="402.53" y="-186.45" width="2.2963" height="3.7888"/><rect x="413.97" y="572.71" width="2.2963" height="3.7888"/><rect x="226.99" y="656.61" width="2.2963" height="3.7888"/><rect transform="rotate(90)" x="483.2" y="-126.67" width="10.627" height="3.7888"/><rect x="136.73" y="458.1" width="2.2963" height="3.7888"/><rect x="136.73" y="539.15" width="2.2963" height="3.7888"/><rect transform="rotate(90)" x="531.82" y="-183.81" width="2.2963" height="3.7888"/><rect transform="rotate(90)" x="458.11" y="-183.81" width="2.2963" height="3.7888"/><rect x="197.23" y="554.16" width="2.2963" height="3.7888"/><rect x="197.23" y="558.84" width="2.2963" height="3.7888"/><rect transform="rotate(-45)" x="-299.02" y="490.69" width="2.2963" height="3.7888"/><rect transform="rotate(90)" x="429.65" y="-430.48" width="2.2963" height="3.7888"/><rect transform="rotate(90)" x="424.05" y="-430.48" width="2.2963" height="3.7888"/><rect transform="rotate(90)" x="405.38" y="-430.48" width="2.2963" height="3.7888"/><rect transform="rotate(90)" x="400.83" y="-430.48" width="2.2963" height="3.7888"/><rect transform="rotate(90)" x="384.59" y="-430.48" width="2.2963" height="3.7888"/><rect transform="rotate(90)" x="380.35" y="-430.48" width="2.2963" height="3.7888"/><rect x="145.34" y="453.06" width="2.2963" height="3.7888"/><rect transform="rotate(90)" x="466.11" y="-143.53" width="2.2963" height="3.7888"/><rect transform="rotate(90)" x="536.09" y="-143.51" width="2.2963" height="3.7888"/><rect x="157.87" y="522.45" width="2.2963" height="3.7888"/><rect x="157.87" y="474.72" width="2.2963" height="3.7888"/><rect x="159.3" y="453.06" width="2.2963" height="3.7888"/><rect x="159.3" y="544.8" width="2.2963" height="3.7888"/><rect transform="rotate(90)" x="527.45" y="-227.78" width="2.2963" height="3.7888"/><rect transform="rotate(90)" x="472.57" y="-230.72" width="2.2963" height="3.7888"/><rect transform="rotate(90)" x="624.17" y="-520.13" width="2.2963" height="3.7888"/><rect x="409.6" y="447.24" width="2.2963" height="3.7888"/><rect x="421.77" y="447.24" width="2.2963" height="3.7888"/><rect transform="rotate(90)" x="462.05" y="-265.47" width="2.2963" height="3.7888"/><rect transform="rotate(90)" x="470.02" y="-576.93" width="2.2963" height="3.7888"/><rect transform="rotate(90)" x="538.86" y="-574.72" width="2.2963" height="3.7888"/><rect x="529.57" y="634.27" width="2.2963" height="3.7888"/><rect transform="rotate(90)" x="668.67" y="-498.49" width="2.2963" height="3.7888"/><rect x="469.32" y="688.43" width="2.2963" height="3.7888"/><rect x="425.21" y="497.96" width="2.2963" height="3.7888"/><rect x="435.02" y="497.96" width="2.2963" height="3.7888"/><rect transform="rotate(-27.677)" x="295.77" y="539.35" width="3.1621" height="3.7888" enable-background="new"/><rect transform="rotate(-27.677)" x="323.57" y="539.82" width="3.1621" height="3.7888" enable-background="new"/><rect transform="rotate(71.782)" x="500.2" y="-434.4" width="3.1621" height="3.7888" enable-background="new"/><rect transform="rotate(71.782)" x="528.16" y="-434.42" width="3.1621" height="3.7888" enable-background="new"/><rect x="581.16" y="570" width="2.2963" height="3.7888" enable-background="new"/><rect transform="rotate(90)" x="562.59" y="-574.76" width="2.2963" height="3.7888" enable-background="new"/><rect transform="rotate(90)" x="590.56" y="-541.9" width="2.2963" height="3.7888" enable-background="new"/><rect transform="rotate(135)" x="3.7652" y="-814.94" width="7.5096" height="3.7888" enable-background="new"/><rect transform="rotate(135)" x="3.5799" y="-825.63" width="7.5096" height="3.7888" enable-background="new"/><rect transform="rotate(90)" x="454.11" y="-591.35" width="3.9527" height="3.7888" enable-background="new"/><rect transform="rotate(90)" x="459.37" y="-366.12" width="2.2963" height="3.7888" enable-background="new"/></g></svg>
