<?xml version="1.0" encoding="UTF-8"?>
<svg width="161.31mm" height="123.16mm" enable-background="new" version="1.1" viewBox="0 0 609.69 465.47" xml:space="preserve" xmlns="http://www.w3.org/2000/svg"><g transform="translate(-10.592 -349.35)"><g fill="none"><g stroke="#000"><g stroke-linecap="round" stroke-width=".60238"><rect id="room200" x="472.75" y="668.91" width="23.812" height="30.416"/><rect id="room266" x="293.44" y="472.2" width="20.216" height="37.652"/><rect id="room250" x="555.32" y="487.26" width="34.289" height="27.9"/><rect id="room248" x="569.89" y="538.17" width="30.332" height="39.794"/><rect id="room246" x="569.89" y="577.96" width="30.332" height="27.899"/><path d="m471.5 537.35-1.6e-4 51.261h57.593v-38.334h-41.833l1.6e-4 -12.927z"/><rect id="room253" x="503.46" y="523.92" width="34.151" height="26.352"/><rect id="room251A" x="529.09" y="563.96" width="13.338" height="9.8026"/><rect id="room251S" x="542.43" y="563.96" width="14.758" height="9.8026"/><rect id="roomBM202" x="537.61" y="532.79" width="9.638" height="17.481"/><rect id="room249" x="529.09" y="573.77" width="28.096" height="44.085"/><rect id="room247" x="485.81" y="588.61" width="43.281" height="29.244"/><rect id="roomAHU9" x="471.5" y="588.61" width="14.312" height="29.244"/><rect id="roomBW202" x="547.25" y="532.79" width="9.9392" height="17.481"/><path d="m272.36 521.04v92.759h91.479v-92.759z"/><rect id="room217" x="323.93" y="765.01" width="22.118" height="31.87"/></g><path id="room207" d="m489.99 791.51h15.74l10.022-10.022-22.406-19.949-3.3561 3.4717z" stroke-width=".60238px"/><path id="room205" d="m493.34 761.54 10.47-9.8415h28.147v13.579l-16.211 16.211z" stroke-width=".60238px"/><g stroke-linecap="round" stroke-width=".60238"><rect id="room240" x="381.53" y="638.7" width="32.646" height="30.205"/><rect id="room238S" x="381.53" y="668.91" width="10.813" height="19.283"/><rect id="room238C" x="392.34" y="668.91" width="21.833" height="19.283"/><rect id="room238" x="381.53" y="668.91" width="32.646" height="54.072"/><rect id="room238B" x="401.6" y="708.29" width="12.573" height="14.686"/><rect id="room238A" x="381.53" y="708.29" width="20.073" height="14.686"/><rect id="room214" x="398" y="722.98" width="23.032" height="31.782"/><rect id="room212" x="421.03" y="722.98" width="24.061" height="31.782"/><rect id="room210" x="445.09" y="722.98" width="23.289" height="31.782"/><rect id="room202" x="472.75" y="699.32" width="23.812" height="23.656"/><rect id="room242" x="434.48" y="638.7" width="28.643" height="30.205"/><rect id="room219" x="300.76" y="765.01" width="23.161" height="31.87"/><rect id="room221" x="278.12" y="765.01" width="22.646" height="31.87"/><rect id="room223" x="256.24" y="765.01" width="21.874" height="31.87"/><rect id="room225" x="230.12" y="765.01" width="26.12" height="31.87"/><rect id="room216" x="324.39" y="722.98" width="20.837" height="31.782"/><rect id="roomBM200" x="345.23" y="722.98" width="16.741" height="19.044"/><rect id="room236" x="332.85" y="700.42" width="29.115" height="22.564"/><rect id="room218" x="302" y="722.98" width="22.389" height="31.782"/><rect id="room220" x="279.36" y="722.98" width="22.646" height="31.782"/><rect id="room222" x="255.68" y="722.98" width="23.675" height="31.782"/><rect id="room224" x="230.98" y="722.98" width="24.705" height="31.782"/><rect x="329.5" y="650.22" width="7.9957" height="7.4635"/><rect x="329.5" y="657.68" width="7.9957" height="7.4629"/><rect id="roomBW214" x="337.5" y="650.22" width="5.2976" height="14.926"/><rect id="roomBM214" x="342.79" y="650.22" width="5.7436" height="14.926"/><rect id="roomSBM200" x="345.23" y="748.57" width="8.1517" height="6.1934"/><rect id="roomBSC13" x="345.23" y="742.02" width="8.1517" height="6.5443"/><rect id="roomBW200" x="381.53" y="722.98" width="16.47" height="19.044"/><rect id="roomSBW200" x="389.43" y="748.57" width="8.5728" height="6.1934"/><rect id="roomERU15" x="389.43" y="742.02" width="8.5728" height="6.5443"/></g><path d="m353.38 754.76h8.5894" stroke-width=".60238px"/><path d="m389.43 754.76h-7.897" stroke-width=".60238px"/><g><g stroke-linecap="round"><g stroke-width=".60238"><rect x="414.18" y="668.91" width="58.574" height="54.072"/><rect x="219.4" y="677.26" width="113.46" height="45.725"/><rect id="roomBSC11" x="542.57" y="523.92" width="8.0921" height="8.8703"/><rect id="roomEC12ERU6" x="468.38" y="722.98" width="11.736" height="31.782"/></g><rect id="room204" x="480.12" y="722.98" width="16.443" height="21.808" stroke-width=".60094"/></g><path id="room206" d="m492.79 744.79v3.7181l-5.5119 6.2558h-7.1569v-9.9739z" stroke-width=".60094"/><g stroke-linecap="round" stroke-width=".60238"><rect id="room240A" x="414.18" y="654.07" width="20.307" height="14.841"/><rect id="room240Z" x="414.18" y="646.52" width="20.307" height="7.5474"/><rect id="roomSBM201" x="424.69" y="638.7" width="9.7942" height="7.8169"/><rect id="roomSBW201" x="414.18" y="638.7" width="10.512" height="7.8169"/><rect id="room242A" x="485.88" y="638.7" width="10.68" height="20.501"/><rect id="room242Z" x="485.88" y="659.21" width="10.68" height="9.7038"/><rect id="room203C" x="513.99" y="741.91" width="26.107" height="9.7805"/><rect id="room203D" x="505.1" y="747.3" width="8.8951" height="4.3895"/><rect id="room203B" x="513.99" y="711.45" width="26.107" height="30.459"/><rect id="room203A" x="505.1" y="711.45" width="8.8951" height="28.077"/><path id="room201" d="m505.1 668.91h22.103v-16.443h12.899v58.988h-35.002z"/><rect id="room201A" x="527.2" y="652.47" width="12.899" height="16.443"/><rect id="roomBSC12" x="505.1" y="658.04" width="22.103" height="10.867"/><rect id="roomERU7" x="505.1" y="628.75" width="22.103" height="29.296"/><rect id="room244Z" x="527.2" y="644.11" width="12.899" height="8.356"/><rect id="room244A" x="527.2" y="628.75" width="12.899" height="15.364"/><path id="room244" d="m527.2 628.75 60.683-3.5e-4v13.819l-20.025 18.153h-27.759v-8.2518h-12.899z"/><rect id="room252" x="520.82" y="487.26" width="34.502" height="27.9"/><rect id="room254" x="491.71" y="487.26" width="29.111" height="27.9"/><rect id="room256" x="468.27" y="487.27" width="23.438" height="27.899"/><rect id="room256A" x="448.83" y="504.8" width="19.441" height="10.364"/><rect id="room258" x="442.12" y="472.2" width="26.146" height="32.596"/><rect id="room260" x="415.98" y="472.2" width="26.146" height="32.596"/><rect id="room262C" x="403.65" y="472.2" width="12.323" height="11.302"/><rect id="room262A" x="403.65" y="483.51" width="12.323" height="21.294"/><rect id="room262B" x="389.92" y="472.2" width="13.731" height="8.0671"/><rect id="room262" x="389.92" y="472.2" width="26.054" height="32.596"/><rect id="room209" x="467.06" y="765.01" width="22.93" height="31.87"/><rect id="room211" x="444.41" y="765.01" width="22.642" height="31.87"/><rect id="room213" x="421.23" y="765.01" width="23.181" height="31.87"/><rect id="room215" x="398.32" y="765.01" width="22.912" height="31.87"/><rect id="room245C" x="437.57" y="537.35" width="33.927" height="15.87"/><path id="roomx201" d="m475 523.92 28.456-2.3e-4v26.352l-16.201 3e-5v-12.927l-12.255 2.3e-4z"/><rect x="452.18" y="523.92" width="6.1117" height="13.425"/><rect id="room261A" x="382.57" y="516.6" width="11.64" height="8.8814"/><rect x="382.57" y="525.49" width="11.64" height="13.477"/><rect x="382.57" y="538.96" width="19.188" height="25.338"/><rect id="room261B" x="401.76" y="533.3" width="24.259" height="30.998"/><rect x="401.76" y="516.6" width="24.259" height="8.3423"/><rect x="409.31" y="524.95" width="16.712" height="8.356"/><rect x="401.76" y="524.95" width="7.5474" height="8.356"/><path id="room245" d="m382.57 564.3h43.447v-18.786h11.557v-8.1688l33.927-3.1e-4 -1.5e-4 88.053h-49.037v4.5738h-39.893z"/><rect x="371.79" y="536.81" width="10.782" height="63.254"/><rect id="room264" x="313.66" y="472.2" width="20.512" height="37.652"/><rect id="room268" x="273.49" y="472.2" width="19.947" height="37.652"/><rect id="room270" x="253.28" y="472.2" width="20.216" height="37.652"/><rect id="room272" x="231.6" y="472.2" width="21.672" height="37.652"/><path id="room262D" d="m353.58 472.2h14.566v17.904h5.784v14.692h-20.35z"/><rect id="room255" x="458.29" y="523.92" width="16.712" height="13.424"/><rect id="room243" x="335.16" y="613.8" width="28.674" height="26.793"/><rect id="room241" x="272.36" y="613.8" width="23.032" height="26.793"/><rect id="room241B" x="307.15" y="629.71" width="14.946" height="10.89"/><path id="room241A" d="m295.39 613.8h19.427v15.903h-7.6678v10.89h-11.759z"/><path id="room243A" d="m314.82 613.8h20.346v26.793h-13.068v-10.89h-7.2779z"/><rect id="roomx202" x="252.15" y="628.1" width="20.211" height="12.498"/><rect id="room239" x="252.15" y="613.8" width="20.211" height="14.295"/><rect id="roomAHU10" x="257.48" y="600.84" width="14.874" height="12.961"/><rect x="348.54" y="668.78" width="13.434" height="4.4524"/><rect id="room230" x="283.75" y="650.22" width="37.745" height="27.04"/><rect id="room228" x="254.77" y="650.22" width="28.971" height="27.04"/><rect id="room226" x="227.14" y="650.22" width="27.637" height="27.04"/><rect id="roomx203" x="219.4" y="657.81" width="7.7416" height="3.145"/><rect id="roomEC17" x="219.4" y="660.96" width="7.7416" height="3.2402"/><rect id="room235D" x="219.4" y="664.2" width="7.7416" height="13.056"/><rect id="roomBSC14" x="221.87" y="654.86" width="5.2638" height="2.9543"/><rect id="roomERU4" x="219.4" y="722.98" width="11.58" height="31.782"/><rect id="roomEC13" x="206.3" y="767.87" width="8.1956" height="18.146"/><rect id="room227" x="179.88" y="765.01" width="26.419" height="21.006"/><rect id="room229" x="179.88" y="738.51" width="26.419" height="26.493"/><rect id="room229A" x="179.88" y="733.18" width="26.419" height="5.3368"/><rect id="room231" x="179.88" y="712.4" width="26.419" height="20.775"/><rect id="room233" x="179.88" y="693.15" width="26.419" height="19.251"/><rect id="room235C" x="179.88" y="678.86" width="13.649" height="14.295"/><rect id="room235S" x="193.53" y="678.86" width="12.77" height="14.295"/><rect id="room235" x="179.88" y="645.88" width="26.419" height="47.269"/><rect id="room235B" x="179.88" y="645.88" width="10.409" height="10.102"/><rect id="room235A" x="190.29" y="645.88" width="16.01" height="10.102"/><rect id="room278" x="194.48" y="573.26" width="34.693" height="28.781"/><rect id="room276" x="194.48" y="536.74" width="34.693" height="36.524"/><rect id="room274S" x="213.62" y="523.26" width="13.399" height="13.477"/><rect id="room274" x="177.77" y="491.32" width="35.85" height="45.419"/><rect x="202.57" y="491.32" width="11.052" height="18.868"/><rect x="208.36" y="523.26" width="5.2562" height="13.477"/><rect x="177.77" y="523.26" width="30.594" height="13.477"/><rect x="238.65" y="521.04" width="33.713" height="14.487"/><path id="room143Z" d="m238.65 535.53v58.492h10.127v13.829h5.6264v-7.0084h17.96v-8.4394h-15.385v-45.424h15.385v-11.449z"/><rect x="239.17" y="600.84" width="9.6032" height="7.0084"/><rect id="roomBSC10" x="339.56" y="492.79" width="9.3018" height="6.4191"/><path id="roomBM210" d="m334.17 472.2h9.8048l-4.1e-4 20.586-4.4158-1.2e-4v12.011h-5.3886z"/><path id="roomBW210" d="m343.97 472.2h9.6031v32.597h-4.7171v-12.011h-4.886z"/><rect id="room251" x="529.09" y="550.27" width="28.096" height="23.493"/><rect x="382.57" y="613.21" width="13.019" height="16.761"/><rect x="395.59" y="613.21" width="10.864" height="16.761"/><path id="room237" d="m181.79 602.04h45.097v34.5l-20.585-1.3e-4v9.3389h-24.512z"/><path id="room234" d="m332.85 677.26 29.116 0.028-8.2e-4 23.133h-29.115z"/><path id="room232" d="m321.49 650.22h16.004v14.926h11.041l-6.4e-4 12.114h-27.045z"/><rect id="room261" x="382.57" y="516.6" width="43.447" height="47.697"/><path id="room245A" d="m395.59 613.21 31.258 8.7e-4v4.9551h10.673v7.2309h-15.057l-9e-4 4.5738-26.874-8e-5z"/><rect id="roomx200" x="572.6" y="515.16" width="17.007" height="10.632" enable-background="new"/><path d="m202.3 602.04v34.5l4.0027-8e-5" enable-background="new"/><rect id="roomPOI200" x="236.99" y="540.55" width="1.6607" height="49.106" enable-background="new"/></g></g></g><g stroke="#000100"><g stroke-linecap="round"><path id="roomBC200" d="m485.62 765.01v-1.4195h1.8035v1.4195z" enable-background="new" stroke-width=".50047" style="mix-blend-mode:normal"/><path d="m359.93 770.86h21.514v21.336h-21.514z" stroke-width=".60267"/><g stroke-width=".50047"><path id="roomBC201" d="m373.39 770.8v-1.4195h1.8035v1.4195z" enable-background="new" style="mix-blend-mode:normal"/><path id="roomBC202" d="m217.98 749.61h1.4195v1.8035h-1.4195z" enable-background="new" style="mix-blend-mode:normal"/><path id="roomBC203" d="m361.97 650.27h1.4195v1.8035h-1.4195z" enable-background="new" style="mix-blend-mode:normal"/><path id="roomBC204" d="m226.88 611.32h1.4195v1.8035h-1.4195z" enable-background="new" style="mix-blend-mode:normal"/><path id="roomBC205" d="m334.17 507.02h1.4195v1.8035h-1.4195z" enable-background="new" style="mix-blend-mode:normal"/><path id="roomBC206" d="m565.02 515.16v1.4195h-1.8035v-1.4195z" enable-background="new" style="mix-blend-mode:normal"/><path id="roomHS200" d="m367.12 770.86v-1.4195h1.8035v1.4195z" enable-background="new" style="mix-blend-mode:normal"/><path id="roomHS201" d="m388.5 493.64h1.4195v1.8035h-1.4195z" enable-background="new" style="mix-blend-mode:normal"/><path id="roomWF200" d="m425.58 637.28v1.4195h-1.8035v-1.4195z" enable-background="new" style="mix-blend-mode:normal"/></g></g><g stroke-width=".576"><rect id="room261Z" x="401.76" y="516.6" width="24.259" height="8.3423"/><rect id="roomEC15" x="348.54" y="673.23" width="13.434" height="4.0503"/><rect id="roomPOI201" x="372.36" y="622.82" width="2.1189" height="2.9476"/><rect id="roomPOI202" x="380.19" y="542.48" width="2.3848" height="52.069"/></g></g></g><g fill="#fff"><rect x="559.55" y="513.04" width="2.2963" height="3.7888" enable-background="new"/><rect x="522.89" y="513.04" width="2.2963" height="3.7888" enable-background="new"/><rect x="516.01" y="513.04" width="2.2963" height="3.7888" enable-background="new"/><rect transform="rotate(90)" x="507.46" y="-556.93" width="2.2963" height="3.7888" enable-background="new"/><rect x="470.6" y="513.04" width="2.2963" height="3.7888" enable-background="new"/><rect x="450.78" y="513.04" width="2.2963" height="3.7888" enable-background="new"/><rect x="443.24" y="502.67" width="2.2963" height="3.7888" enable-background="new"/><rect x="418.3" y="502.67" width="2.2963" height="3.7888" enable-background="new"/><rect x="409.68" y="502.67" width="2.2963" height="3.7888" enable-background="new"/><rect x="398.76" y="478" width="2.2963" height="3.7888" enable-background="new"/><rect transform="rotate(90)" x="480.44" y="-405.32" width="2.2963" height="3.7888" enable-background="new"/><rect transform="rotate(90)" x="483.87" y="-405.32" width="2.2963" height="3.7888" enable-background="new"/><rect transform="rotate(90)" x="501.06" y="-391.23" width="2.2963" height="3.7888" enable-background="new"/><rect transform="rotate(90)" x="493.62" y="-375.6" width="2.2963" height="3.7888" enable-background="new"/><rect transform="rotate(90)" x="500.77" y="-350.44" width="2.2963" height="3.7888" enable-background="new"/><rect transform="rotate(90)" x="500.77" y="-341.11" width="2.2963" height="3.7888" enable-background="new"/><rect x="342.72" y="496.97" width="2.2963" height="3.7888" enable-background="new"/><rect x="314.99" y="507.54" width="2.2963" height="3.7888" enable-background="new"/><rect x="309.51" y="507.54" width="2.2963" height="3.7888" enable-background="new"/><rect x="275.21" y="507.54" width="2.2963" height="3.7888" enable-background="new"/><rect x="269.35" y="507.54" width="2.2963" height="3.7888" enable-background="new"/><rect x="248.32" y="507.54" width="2.2963" height="3.7888" enable-background="new"/><rect x="204.79" y="507.95" width="2.2963" height="3.7888" enable-background="new"/><rect x="196.44" y="521.02" width="2.2963" height="3.7888" enable-background="new"/><rect x="209.64" y="534.77" width="2.2963" height="3.7888" enable-background="new"/><rect transform="rotate(90)" x="515.76" y="-215.27" width="2.2963" height="3.7888" enable-background="new"/><rect x="252.15" y="533.24" width="2.2963" height="3.7888" enable-background="new"/><rect transform="rotate(90)" x="538.96" y="-230.99" width="2.2963" height="3.7888" enable-background="new"/><rect transform="rotate(90)" x="597.29" y="-230.99" width="2.2963" height="3.7888" enable-background="new"/><rect transform="rotate(90)" x="639.03" y="-213.08" width="2.2963" height="3.7888" enable-background="new"/><rect transform="rotate(90)" x="622.25" y="-254.25" width="2.2963" height="3.7888" enable-background="new"/><rect transform="rotate(90)" x="651.42" y="-208.12" width="2.2963" height="3.7888" enable-background="new"/><rect x="200.32" y="654.09" width="2.2963" height="3.7888" enable-background="new"/><rect x="183.93" y="654.09" width="2.2963" height="3.7888" enable-background="new"/><rect x="183.93" y="676.68" width="2.2963" height="3.7888" enable-background="new"/><rect x="201.37" y="676.68" width="2.2963" height="3.7888" enable-background="new"/><rect x="183.93" y="690.97" width="2.2963" height="3.7888" enable-background="new"/><rect transform="rotate(90)" x="729.05" y="-208.12" width="2.2963" height="3.7888" enable-background="new"/><rect transform="rotate(90)" x="734.57" y="-208.12" width="2.2963" height="3.7888" enable-background="new"/><rect transform="rotate(90)" x="740.37" y="-208.12" width="2.2963" height="3.7888" enable-background="new"/><rect transform="rotate(90)" x="765.55" y="-208.12" width="1.9146" height="3.7888" enable-background="new"/><rect x="251.32" y="763.07" width="2.2963" height="3.7888" enable-background="new"/><rect x="274.28" y="763.07" width="2.2963" height="3.7888" enable-background="new"/><rect x="279.91" y="763.07" width="2.2963" height="3.7888" enable-background="new"/><rect x="319.36" y="763.07" width="2.2963" height="3.7888" enable-background="new"/><rect x="325.65" y="763.07" width="2.2963" height="3.7888" enable-background="new"/><rect x="325.65" y="752.78" width="2.2963" height="3.7888" enable-background="new"/><rect x="319.36" y="752.78" width="2.2963" height="3.7888" enable-background="new"/><rect x="279.91" y="752.78" width="2.2963" height="3.7888" enable-background="new"/><rect x="274.28" y="752.59" width="2.2963" height="3.7888" enable-background="new"/><rect x="251.32" y="752.59" width="2.2963" height="3.7888" enable-background="new"/><rect x="356.72" y="740.01" width="2.2963" height="3.7888" enable-background="new"/><rect x="384.36" y="740.01" width="2.2963" height="3.7888" enable-background="new"/><rect x="416.49" y="763.07" width="2.2963" height="3.7888" enable-background="new"/><rect x="416.49" y="752.68" width="2.2963" height="3.7888" enable-background="new"/><rect x="423.16" y="763.07" width="2.2963" height="3.7888" enable-background="new"/><rect x="423.16" y="752.87" width="2.2963" height="3.7888" enable-background="new"/><rect x="446.8" y="763.07" width="2.2963" height="3.7888" enable-background="new"/><rect x="446.8" y="752.97" width="2.2963" height="3.7888" enable-background="new"/><rect x="468.9" y="763.07" width="2.2963" height="3.7888" enable-background="new"/><rect transform="rotate(-45)" x="-193.01" y="885.76" width="2.2963" height="3.7888" enable-background="new"/><rect transform="rotate(-45)" x="-187.08" y="885.49" width="2.2963" height="3.7888" enable-background="new"/><rect x="506.64" y="745.42" width="2.2963" height="3.7888" enable-background="new"/><rect x="506.64" y="737.73" width="2.2963" height="3.7888" enable-background="new"/><rect transform="rotate(90)" x="743.58" y="-515.75" width="2.2963" height="3.7888" enable-background="new"/><rect transform="rotate(90)" x="739.98" y="-515.75" width="1.4089" height="3.7888" enable-background="new"/><rect transform="rotate(-45)" x="-184.25" y="875.92" width="2.2963" height="3.7888" enable-background="new"/><rect transform="rotate(90)" x="726.9" y="-498.12" width="2.2963" height="3.7888" enable-background="new"/><rect transform="rotate(90)" x="701.55" y="-498.12" width="2.2963" height="3.7888" enable-background="new"/><rect transform="rotate(90)" x="694.98" y="-498.12" width="2.2963" height="3.7888" enable-background="new"/><rect transform="rotate(90)" x="707.75" y="-506.89" width="2.2963" height="3.7888" enable-background="new"/><rect transform="rotate(90)" x="670.87" y="-506.89" width="2.2963" height="3.7888" enable-background="new"/><rect transform="rotate(90)" x="661.02" y="-498.12" width="2.2963" height="3.7888" enable-background="new"/><rect transform="rotate(90)" x="653.74" y="-498.12" width="2.2963" height="3.7888" enable-background="new"/><rect transform="rotate(90)" x="663.05" y="-506.89" width="2.2963" height="3.7888" enable-background="new"/><rect transform="rotate(90)" x="652.81" y="-506.89" width="2.2963" height="3.7888" enable-background="new"/><rect x="532.56" y="666.83" width="2.2963" height="3.7888" enable-background="new"/><rect x="529.51" y="650.25" width="2.2963" height="3.7888" enable-background="new"/><rect x="529.51" y="642.24" width="2.2963" height="3.7888" enable-background="new"/><rect x="546.1" y="626.61" width="2.2963" height="3.7888" enable-background="new"/><rect x="477.63" y="615.83" width="2.2963" height="3.7888" enable-background="new"/><rect transform="rotate(90)" x="601.14" y="-571.8" width="2.2963" height="3.7888" enable-background="new"/><rect transform="rotate(90)" x="580.52" y="-571.8" width="2.2963" height="3.7888" enable-background="new"/><rect transform="rotate(90)" x="572.56" y="-571.8" width="2.2963" height="3.7888" enable-background="new"/><rect transform="rotate(90)" x="578.9" y="-559.13" width="2.2963" height="3.7888" enable-background="new"/><rect x="550.95" y="615.56" width="2.2963" height="3.7888" enable-background="new"/><rect x="520.89" y="615.56" width="2.2963" height="3.7888" enable-background="new"/><rect x="490.16" y="615.56" width="2.2963" height="3.7888" enable-background="new"/><rect x="549.61" y="562" width="2.2963" height="3.7888" enable-background="new"/><rect x="532.27" y="562" width="2.2963" height="3.7888" enable-background="new"/><rect x="531.89" y="548.09" width="2.2963" height="3.7888" enable-background="new"/><rect x="539.13" y="530.55" width="2.2963" height="3.7888" enable-background="new"/><rect x="552.66" y="530.55" width="2.2963" height="3.7888" enable-background="new"/><rect x="530.36" y="521.6" width="2.2963" height="3.7888" enable-background="new"/><rect x="477.38" y="521.6" width="2.2963" height="3.7888" enable-background="new"/><rect x="470.71" y="521.6" width="2.2963" height="3.7888" enable-background="new"/><rect x="429.92" y="543.71" width="2.2963" height="3.7888" enable-background="new"/><rect transform="rotate(90)" x="547.49" y="-439.6" width="2.2963" height="3.7888" enable-background="new"/><rect x="396.76" y="514.59" width="2.2963" height="3.7888" enable-background="new"/><rect x="398.24" y="537.1" width="2.2963" height="3.7888" enable-background="new"/><rect x="422.5" y="531.31" width="2.2963" height="3.7888" enable-background="new"/><rect x="398.24" y="562.17" width="2.2963" height="3.7888" enable-background="new"/><rect transform="rotate(90)" x="526.47" y="-403.75" width="2.2963" height="3.7888" enable-background="new"/><rect transform="rotate(90)" x="519.59" y="-403.75" width="2.2963" height="3.7888" enable-background="new"/><rect transform="rotate(90)" x="522.15" y="-396.07" width="2.2963" height="3.7888" enable-background="new"/><rect transform="rotate(90)" x="526.33" y="-396.07" width="2.2963" height="3.7888" enable-background="new"/><rect transform="rotate(90)" x="519.59" y="-427.88" width="2.2963" height="3.7888" enable-background="new"/><rect x="449.8" y="623.55" width="2.2963" height="3.7888" enable-background="new"/><rect x="417.11" y="611.35" width="2.2963" height="3.7888" enable-background="new"/><rect x="390.16" y="611.35" width="2.2963" height="3.7888" enable-background="new"/><rect transform="rotate(90)" x="615.96" y="-408.34" width="2.2963" height="3.7888" enable-background="new"/><rect x="328.39" y="638.43" width="2.2963" height="3.7888" enable-background="new"/><rect x="311.23" y="638.43" width="2.2963" height="3.7888" enable-background="new"/><rect x="299.32" y="638.43" width="2.2963" height="3.7888" enable-background="new"/><rect x="289.98" y="638.43" width="2.2963" height="3.7888" enable-background="new"/><rect transform="rotate(90)" x="635.37" y="-336.95" width="2.2963" height="3.7888" enable-background="new"/><rect x="324.14" y="648.27" width="2.2963" height="3.7888" enable-background="new"/><rect transform="rotate(90)" x="652.24" y="-331.42" width="2.2963" height="3.7888" enable-background="new"/><rect transform="rotate(90)" x="661.01" y="-331.42" width="2.2963" height="3.7888" enable-background="new"/><rect x="339.1" y="648.27" width="2.2963" height="3.7888" enable-background="new"/><rect x="344.44" y="648.27" width="2.2963" height="3.7888" enable-background="new"/><rect x="313.85" y="648.27" width="2.2963" height="3.7888" enable-background="new"/><rect x="287.17" y="648.27" width="2.2963" height="3.7888" enable-background="new"/><rect x="258" y="648.27" width="2.2963" height="3.7888" enable-background="new"/><rect x="249.43" y="648.27" width="2.2963" height="3.7888" enable-background="new"/><rect x="219.86" y="655.72" width="1.4491" height="3.7888" enable-background="new"/><rect transform="rotate(90)" x="655.34" y="-223.73" width="1.9627" height="3.7888" enable-background="new"/><rect transform="rotate(90)" x="665.71" y="-221.08" width="2.2963" height="3.7888" enable-background="new"/><rect transform="rotate(90)" x="726.9" y="-221.08" width="2.2963" height="3.7888" enable-background="new"/><rect transform="rotate(90)" x="694.84" y="-363.82" width="2.2963" height="3.7888" enable-background="new"/><rect transform="rotate(90)" x="703.52" y="-363.82" width="2.2963" height="3.7888" enable-background="new"/><rect transform="rotate(90)" x="703.33" y="-383.64" width="2.2963" height="3.7888" enable-background="new"/><rect x="385.26" y="706.27" width="2.2963" height="3.7888" enable-background="new"/><rect x="403.32" y="706.27" width="2.2963" height="3.7888" enable-background="new"/><rect x="409.52" y="686.33" width="2.2963" height="3.7888" enable-background="new"/><rect x="386.07" y="686.33" width="2.2963" height="3.7888" enable-background="new"/><rect x="408.95" y="636.67" width="2.2963" height="3.7888" enable-background="new"/><rect transform="rotate(90)" x="662.63" y="-383.45" width="2.2963" height="3.7888" enable-background="new"/><rect transform="rotate(90)" x="662.63" y="-416.07" width="2.2963" height="3.7888" enable-background="new"/><rect transform="rotate(90)" x="662.63" y="-436.42" width="2.2963" height="3.7888" enable-background="new"/><rect x="428.79" y="652.09" width="2.2963" height="3.7888" enable-background="new"/><rect x="418.65" y="636.67" width="2.2963" height="3.7888" enable-background="new"/><rect x="427.01" y="636.67" width="2.2963" height="3.7888" enable-background="new"/><rect x="455.6" y="636.67" width="2.2963" height="3.7888" enable-background="new"/><rect transform="rotate(90)" x="658.83" y="-208.12" width="2.2963" height="3.7888" enable-background="new"/><rect transform="rotate(90)" x="635.37" y="-365.79" width="2.2963" height="3.7888" enable-background="new"/><rect transform="rotate(90)" x="655.44" y="-542.2" width="2.2963" height="3.7888" enable-background="new"/><rect transform="rotate(90)" x="534.74" y="-403.55" width="2.2963" height="3.7888" enable-background="new"/><rect transform="rotate(90)" x="515.82" y="-574.62" width="2.2963" height="3.7888" enable-background="new"/><rect transform="rotate(90)" x="639.57" y="-208.16" width="2.2963" height="3.7888" enable-background="new"/><rect transform="rotate(90)" x="619.2" y="-204.28" width="2.2963" height="3.7888" enable-background="new"/><rect x="468.9" y="752.84" width="2.2963" height="3.7888" enable-background="new"/><rect x="437.99" y="535.21" width="2.2963" height="3.7888" enable-background="new"/><rect x="258" y="638.73" width="2.2963" height="3.7888" enable-background="new"/><rect transform="rotate(90)" x="661.44" y="-221.09" width="1.9627" height="3.7888" enable-background="new"/><rect x="239.61" y="755.89" width="2.2963" height="3.7888" enable-background="new"/><rect x="208.76" y="765.99" width="2.2963" height="3.7888" enable-background="new"/><rect transform="rotate(90)" x="555.59" y="-559.07" width="2.2963" height="3.7888" enable-background="new"/><rect transform="rotate(90)" x="529.06" y="-215.63" width="2.2963" height="3.7888" enable-background="new"/><rect x="254.93" y="599.01" width="1.9246" height="3.7888" enable-background="new"/><rect transform="rotate(90)" x="609.28" y="-259.36" width="2.2963" height="3.7888" enable-background="new"/><rect transform="rotate(90)" x="674.07" y="-363.7" width="2.2963" height="3.7888" enable-background="new"/><rect x="545.58" y="521.97" width="2.2963" height="3.7888" enable-background="new"/><rect transform="rotate(90)" x="750.18" y="-391.32" width="2.2963" height="3.7888" enable-background="new"/><rect transform="rotate(90)" x="744.21" y="-391.32" width="2.2963" height="3.7888" enable-background="new"/><rect transform="rotate(90)" x="744.21" y="-355.2" width="2.2963" height="3.7888" enable-background="new"/><rect transform="rotate(90)" x="750.18" y="-355.13" width="2.2963" height="3.7888" enable-background="new"/></g></g><g transform="translate(-10.592 -349.35)" fill="none"><g stroke="#000"><g stroke-width=".60238px"><path d="m474.05 655.45v-16.744h-10.928l-1e-5 30.205 22.756-6e-5v-29.292"/><path d="m485.88 643.27h-22.756"/><path d="m485.88 645.28h-22.756"/><path d="m485.88 647.3h-22.756"/><path d="m485.88 649.32h-22.756"/><path d="m485.88 651.33h-22.756"/><path d="m485.88 653.35h-22.756"/><path d="m485.88 655.37h-22.756"/></g><path d="m575.17 525.78 16.839 2.5e-4v6.3144h-16.839z" stroke-width=".60094"/><g stroke-width=".60238px"><path d="m590.13 525.78v12.385"/><path d="m588.29 525.78v12.385"/><path d="m586.46 525.78v12.385"/><path d="m584.63 525.78v12.385"/><path d="m582.8 525.78v12.385"/><path d="m580.96 525.78v12.385"/><path d="m579.13 525.78v12.385"/><path d="m577.3 525.78v12.385"/><path d="m450.03 523.92v13.104"/><path d="m447.98 523.92v13.104"/><path d="m445.94 523.92v13.104"/><path d="m443.89 523.92v13.104"/><path d="m587.88 612.82h-15l7e-5 -6.9611 15 2.1e-4 3.1e-4 14.238-15-1.1e-4"/><path d="m585.98 605.86v14.238"/><path d="m584.12 605.86v14.238"/><path d="m582.25 605.86v14.238"/><path d="m580.38 605.86v14.238"/><path d="m578.52 605.86v14.238"/><path d="m576.65 605.86v14.238"/><path d="m574.78 605.86v14.238"/><path d="m389.58 780.96v-10.159l8.742 1.6e-4 9e-5 10.16-16.925-3.7e-4 9e-5 -10.159"/><path d="m398.32 778.61h-16.925"/><path d="m398.32 775.91h-16.925"/><path d="m398.32 773.21h-16.925"/><path d="m235.14 608.94-7e-5 7.5624 1.7236 4.5e-4v-7.5631z"/><path d="m240.78 543.16v8.509"/><path d="m245.05 543.16v8.509"/><path d="m247.19 543.16v8.509"/><path d="m249.33 543.16v8.509"/><path d="m242.92 543.16v8.509"/><path d="m368.14 482.85h10.537l-6e-4 7.2572h-10.537l-6.3e-4 -17.904h10.538"/><path d="m376.81 490.11 6e-4 -17.904"/><path d="m374.63 490.11 6e-4 -17.904"/><path d="m372.45 490.11 6.1e-4 -17.904"/><path d="m370.27 490.11 6e-4 -17.904"/><path d="m353.24 780.97v-10.163h-7.2l-4e-5 10.163 13.882-1.7e-4 -1.8e-4 -10.106"/><path d="m359.93 772.98h-13.882"/><path d="m359.93 778.5h-13.882"/><path d="m359.93 775.74h-13.882"/></g><path d="m214.5 770.8h15.629" stroke-width=".60094"/><g stroke-width=".60238px"><path d="m214.5 773.83h15.629"/><path d="m214.5 776.85h15.629"/><path d="m361.97 650.27v18.507h-13.434v-10.554h6.2406v10.554"/><path d="m348.54 662.43h13.434"/><path d="m348.54 664.46h13.434"/><path d="m348.54 666.48h13.434"/><path d="m348.54 660.4h13.434"/><path d="m238.65 521.04-8.3e-4 -11.188"/></g><path d="m242.93 521.04-8.3e-4 -11.188" stroke-width=".60094"/><path d="m240.79 521.04-8.3e-4 -11.188" stroke-width=".60238px"/><g stroke-width=".60094"><path d="m592.01 532.1v6.0702l-16.839-6.2e-4"/><path d="m575.17 525.78h-2.5681v6.2782"/><path d="m592.01 525.78 8.2167 4.2e-4 4.6e-4 12.384-8.2176 6.3e-4z"/></g><path d="m214.5 779.88h15.629" stroke-width=".60238px"/><path d="m214.5 782.91h15.629" stroke-width=".60238px"/><path d="m214.49 767.87h8.1005v18.147" stroke-width=".60094"/><g stroke-width=".60238px"><path d="m226.88 616.5-7e-5 10.318 9.9795 4.5e-4v-10.319z"/><path d="m226.88 617.93h9.9794z"/><path d="m226.88 619.42h9.9794z"/><path d="m226.88 620.91h9.9794z"/><path d="m226.88 622.39h9.9794z"/><path d="m226.88 623.88h9.9794z"/><path d="m226.88 625.37h9.9794z"/><path d="m236.86 632.54v-24.689h2.3065"/><path d="m238.65 543.16h12.871"/><path d="m238.65 547.35 12.871-2.9e-4v4.3161h-12.871"/></g><g stroke-width=".60094"><path d="m213.62 478.63h17.985"/><path d="m213.62 481.31h17.985"/><path d="m213.62 483.98h17.985"/><path d="m213.62 486.66h17.985"/><path d="m213.62 489.34h17.985"/><path d="m213.62 492.01h17.985"/><path d="m213.62 494.69h17.985"/><path d="m213.62 475.96h17.985"/><path d="m213.62 494.69v-28.163h17.986"/></g><path d="m214.49 786.01h15.629" stroke-width=".60238px"/><path d="m236.92 522.88-7e-5 8.7886 1.7236 4.5e-4v-8.7894z" enable-background="new" stroke-width=".60238px"/></g><path d="m452.18 530.5h-10.447v-6.5768l10.457-1.8e-4 -0.0107 13.425" stroke="#000100" stroke-width=".576"/><path d="m468.27 487.27h121.34v38.531h10.617v94.301h-12.345v22.468l-20.025 18.153h-27.759v90.976h-8.1388v13.579l-26.233 26.233h-15.74v5.37l-91.665-3e-5v-4.6926l-52.278 2.3e-4v4.6926h-115.92v-10.864h-50.244v-140.13l1.9066-9e-4v-43.838l12.695-1e-5v-65.305h-16.712v-45.419h35.85l-4.7e-4 -24.794h17.986l-5.2e-4 5.6787h236.66z" stroke="#000" stroke-linecap="round" stroke-linejoin="round" stroke-width="1.8071"/></g></svg>
