<?xml version="1.0" encoding="UTF-8"?>
<!-- Created with Inkscape (http://www.inkscape.org/) -->
<svg width="6.1514in" height="4.1667in" enable-background="new" inkscape:export-filename="/home/nathan/Programming/Web/churchill-map/1st_floor.png" inkscape:export-xdpi="500" inkscape:export-ydpi="500" inkscape:version="0.92.4 (5da689c313, 2019-01-14)" sodipodi:docname="2nd_floor_inkscape.svg" version="1.1" viewBox="0 0 590.54 400" xml:space="preserve" xmlns="http://www.w3.org/2000/svg" xmlns:cc="http://creativecommons.org/ns#" xmlns:dc="http://purl.org/dc/elements/1.1/" xmlns:inkscape="http://www.inkscape.org/namespaces/inkscape" xmlns:rdf="http://www.w3.org/1999/02/22-rdf-syntax-ns#" xmlns:sodipodi="http://sodipodi.sourceforge.net/DTD/sodipodi-0.dtd"><metadata><rdf:RDF><cc:Work rdf:about=""><dc:format>image/svg+xml</dc:format><dc:type rdf:resource="http://purl.org/dc/dcmitype/StillImage"/><dc:title/></cc:Work></rdf:RDF></metadata><sodipodi:namedview bordercolor="#666666" borderopacity="1" fit-margin-bottom="0" fit-margin-left="0" fit-margin-right="0" fit-margin-top="0" gridtolerance="10" guidetolerance="10" inkscape:current-layer="layer2" inkscape:cx="488.19324" inkscape:cy="175.01793" inkscape:document-units="pt" inkscape:measure-end="0,0" inkscape:measure-start="0,0" inkscape:pageopacity="0" inkscape:pageshadow="2" inkscape:window-height="1706" inkscape:window-maximized="0" inkscape:window-width="1592" inkscape:window-x="4800" inkscape:window-y="812" inkscape:zoom="10.49317" objecttolerance="10" pagecolor="#ffffff" showgrid="false" showguides="true" units="in"/><g transform="translate(-10.591 -350.69)" fill="none" stroke="#000" inkscape:groupmode="layer" inkscape:label="Rooms"><g stroke-linecap="round" stroke-width=".60238"><rect x="472.75" y="604.78" width="23.812" height="30.416" inkscape:label=""/><rect x="293.44" y="408.08" width="20.216" height="37.652" inkscape:label=""/><rect x="555.32" y="423.14" width="34.289" height="27.9" inkscape:label=""/><rect x="569.89" y="474.04" width="30.332" height="39.794" inkscape:label=""/><rect x="569.89" y="513.83" width="30.332" height="27.899" inkscape:label=""/><path d="m471.5 473.22-1.6e-4 51.261h57.593v-38.334h-41.833l1.6e-4 -12.927z" inkscape:connector-curvature="0" sodipodi:nodetypes="ccccccc"/><rect x="503.46" y="459.8" width="34.151" height="26.352" inkscape:label=""/><rect id="room251A" x="529.09" y="499.84" width="13.338" height="9.8026" inkscape:label=""/><rect id="room251S" x="542.43" y="499.84" width="14.758" height="9.8026" inkscape:label=""/><rect x="537.61" y="468.67" width="9.638" height="17.481"/><rect x="529.09" y="509.64" width="28.096" height="44.085" inkscape:label=""/><rect x="485.81" y="524.48" width="43.281" height="29.244" inkscape:label=""/><rect x="471.5" y="524.48" width="14.312" height="29.244"/><rect x="547.25" y="468.67" width="9.9392" height="17.481"/><path d="m272.36 456.92v92.759h91.479v-92.759z" inkscape:connector-curvature="0" inkscape:label="" sodipodi:nodetypes="ccccc"/><rect x="323.93" y="700.88" width="22.118" height="31.87" inkscape:label=""/></g><path d="m489.99 727.38h15.74l10.022-10.022-22.406-19.949-3.3561 3.4717z" stroke-width=".60238px" inkscape:connector-curvature="0" inkscape:label="" sodipodi:nodetypes="cccccc"/><path d="m493.34 697.41 10.47-9.8415h28.147v13.579l-16.211 16.211z" stroke-width=".60238px" inkscape:connector-curvature="0" inkscape:label=""/><g stroke-linecap="round" stroke-width=".60238"><rect x="381.53" y="574.58" width="32.646" height="30.205" inkscape:label=""/><rect id="room238S" x="381.53" y="604.78" width="10.813" height="19.283" inkscape:label=""/><rect id="room238C" x="392.34" y="604.78" width="21.833" height="19.283" inkscape:label=""/><rect x="381.53" y="624.07" width="32.646" height="20.103" inkscape:label=""/><rect id="room238B" x="401.6" y="644.17" width="12.573" height="14.686" inkscape:label=""/><rect id="room238A" x="381.53" y="644.17" width="20.073" height="14.686" inkscape:label=""/><rect x="398" y="658.85" width="23.032" height="31.782" inkscape:label=""/><rect x="421.03" y="658.85" width="24.061" height="31.782" inkscape:label=""/><rect x="445.09" y="658.85" width="23.289" height="31.782" inkscape:label=""/><rect x="472.75" y="635.2" width="23.812" height="23.656" inkscape:label=""/><rect x="434.48" y="574.58" width="28.643" height="30.205" inkscape:label=""/><rect x="300.76" y="700.88" width="23.161" height="31.87" inkscape:label=""/><rect x="278.12" y="700.88" width="22.646" height="31.87" inkscape:label=""/><rect x="256.24" y="700.88" width="21.874" height="31.87" inkscape:label=""/><rect x="230.12" y="700.88" width="26.12" height="31.87" inkscape:label=""/><rect x="324.39" y="658.85" width="20.837" height="31.782" inkscape:label=""/><rect x="345.23" y="658.85" width="16.741" height="19.044"/><rect x="332.85" y="636.29" width="29.115" height="22.564" inkscape:label=""/><path transform="translate(10.591 350.69)" d="m337.94 260.24-6.7e-4 2.2032h-15.681v23.16h29.115v-23.16l-1e-5 -2.2032z" inkscape:connector-curvature="0" inkscape:label="" sodipodi:nodetypes="cccccccc"/><rect x="302" y="658.85" width="22.389" height="31.782" inkscape:label=""/><rect x="279.36" y="658.85" width="22.646" height="31.782" inkscape:label=""/><rect x="255.68" y="658.85" width="23.675" height="31.782" inkscape:label=""/><rect x="230.98" y="658.85" width="24.705" height="31.782" inkscape:label=""/><path transform="translate(10.591 350.69)" d="m310.9 235.4-2e-4 27.04h27.045l6.7e-4 -12.114h-19.037l-4.7e-4 -14.926z" inkscape:connector-curvature="0" inkscape:label="" sodipodi:nodetypes="cccccccc"/><rect x="329.5" y="586.09" width="7.9957" height="7.4635"/><rect x="329.5" y="593.55" width="7.9957" height="7.4629"/><rect x="337.5" y="586.09" width="5.2976" height="14.926"/><rect x="342.79" y="586.09" width="5.7436" height="14.926"/><rect x="345.23" y="684.44" width="8.1517" height="6.1934"/><rect x="345.23" y="677.9" width="8.1517" height="6.5443"/><rect x="381.53" y="658.85" width="16.47" height="19.044"/><rect x="389.43" y="684.44" width="8.5728" height="6.1934"/><rect x="389.43" y="677.9" width="8.5728" height="6.5443"/></g><path d="m353.38 690.64h8.5894" stroke-width=".60238px" inkscape:connector-curvature="0"/><path d="m389.43 690.64h-7.897" stroke-width=".60238px" inkscape:connector-curvature="0"/><g><g stroke-linecap="round"><g stroke-width=".60238"><rect x="414.18" y="604.78" width="58.574" height="54.072" inkscape:label="#rect1326"/><rect x="219.4" y="613.13" width="113.46" height="45.725"/><rect x="542.57" y="459.8" width="8.0921" height="8.8703"/><rect x="468.38" y="658.85" width="11.736" height="31.782" inkscape:label=""/></g><rect x="480.12" y="658.85" width="16.443" height="21.808" stroke-width=".60094" inkscape:label=""/></g><path d="m492.79 680.66v3.7181l-5.5119 6.2558h-7.1569v-9.9739z" stroke-width=".60094" inkscape:connector-curvature="0" inkscape:label="" sodipodi:nodetypes="cccccc"/><g stroke-linecap="round" stroke-width=".60238"><rect id="room240A" x="414.18" y="589.94" width="20.307" height="14.841" inkscape:label=""/><rect x="414.18" y="582.4" width="20.307" height="7.5474" inkscape:label="140"/><rect x="424.69" y="574.58" width="9.7942" height="7.8169" inkscape:label="140"/><rect x="414.18" y="574.58" width="10.512" height="7.8169" inkscape:label="140"/><rect id="room242A" x="485.88" y="574.58" width="10.68" height="20.501" inkscape:label=""/><rect x="485.88" y="595.08" width="10.68" height="9.7038" inkscape:label=""/><rect id="room203C" x="513.99" y="677.79" width="26.107" height="9.7805" inkscape:label=""/><rect id="room203D" x="505.1" y="683.18" width="8.8951" height="4.3895" inkscape:label=""/><rect id="room203B" x="513.99" y="647.33" width="26.107" height="30.459" inkscape:label=""/><rect id="room203A" x="505.1" y="647.33" width="8.8951" height="28.077" inkscape:label=""/><rect x="505.1" y="604.78" width="35.002" height="42.546" inkscape:label=""/><rect id="room201A" x="527.2" y="588.34" width="12.899" height="16.443" inkscape:label=""/><rect x="505.1" y="593.92" width="22.103" height="10.867" inkscape:label=""/><rect x="505.1" y="564.62" width="22.103" height="29.296" inkscape:label=""/><rect x="527.2" y="579.98" width="12.899" height="8.356" inkscape:label=""/><rect id="room244A" x="527.2" y="564.62" width="12.899" height="15.364" inkscape:label=""/><path d="m540.1 564.62h47.784v13.819l-20.025 18.153h-27.759z" inkscape:connector-curvature="0" inkscape:label="" sodipodi:nodetypes="cccccc"/><rect x="520.82" y="423.14" width="34.502" height="27.9" inkscape:label=""/><rect x="491.71" y="423.14" width="29.111" height="27.9" inkscape:label=""/><rect x="468.27" y="423.14" width="23.438" height="27.899" inkscape:label=""/><rect id="room256A" x="448.83" y="440.67" width="19.441" height="10.364" inkscape:label=""/><rect x="442.12" y="408.08" width="26.146" height="32.596" inkscape:label=""/><rect x="415.98" y="408.08" width="26.146" height="32.596" inkscape:label=""/><rect id="room262C" x="403.65" y="408.08" width="12.323" height="11.302" inkscape:label=""/><rect id="room262A" x="403.65" y="419.38" width="12.323" height="21.294" inkscape:label=""/><rect id="room262B" x="389.92" y="408.08" width="13.731" height="8.0671" inkscape:label=""/><rect x="389.92" y="416.15" width="13.731" height="24.529" inkscape:label=""/><rect x="467.06" y="700.88" width="22.93" height="31.87" inkscape:label=""/><rect x="444.41" y="700.88" width="22.642" height="31.87" inkscape:label=""/><rect x="421.23" y="700.88" width="23.181" height="31.87" inkscape:label=""/><rect x="398.32" y="700.88" width="22.912" height="31.87" inkscape:label=""/><rect x="437.57" y="473.22" width="33.927" height="15.87"/><path d="m475 459.8 28.456-2.3e-4v26.352l-16.201 3e-5v-13.331l-12.255 2.3e-4z" inkscape:connector-curvature="0" sodipodi:nodetypes="ccccccc"/><rect x="452.18" y="459.8" width="6.1117" height="13.425"/><rect id="room261A" x="382.57" y="452.48" width="11.64" height="8.8814"/><rect x="382.57" y="461.36" width="11.64" height="13.477"/><rect x="382.57" y="474.84" width="19.188" height="25.338"/><rect id="room261B" x="401.76" y="469.18" width="24.259" height="30.998" inkscape:label=""/><rect x="401.76" y="452.48" width="24.259" height="8.3423"/><rect x="409.31" y="460.82" width="16.712" height="8.356"/><rect x="401.76" y="460.82" width="7.5474" height="8.356"/><path d="m382.57 452.48h43.447v28.91h11.557v-8.1688l33.927 1e-5 -1.5e-4 88.053h-49.037v4.5738h-39.893z" inkscape:connector-curvature="0" inkscape:label="" sodipodi:nodetypes="ccccccccccc"/><rect x="371.79" y="472.68" width="10.782" height="63.254"/><rect x="313.66" y="408.08" width="20.512" height="37.652" inkscape:label=""/><rect x="273.49" y="408.08" width="19.947" height="37.652" inkscape:label=""/><rect x="253.28" y="408.08" width="20.216" height="37.652" inkscape:label=""/><rect x="231.6" y="408.08" width="21.672" height="37.652" inkscape:label=""/><path id="room262D" d="m353.58 408.08h14.566v17.904h5.784v14.692h-20.35z" inkscape:connector-curvature="0" inkscape:label="" sodipodi:nodetypes="ccccccc"/><rect x="458.29" y="459.8" width="16.712" height="13.02"/><rect x="335.16" y="549.68" width="28.674" height="26.793" inkscape:label=""/><rect x="272.36" y="549.68" width="23.032" height="26.793"/><rect id="room241B" x="307.15" y="565.58" width="14.946" height="10.89" inkscape:label=""/><path id="room241A" d="m295.39 549.68h19.427v15.903h-7.6678v10.89h-11.759z" inkscape:connector-curvature="0" inkscape:label="" sodipodi:nodetypes="ccccccc"/><path id="room243A" d="m314.82 549.68h20.346v26.793h-13.068v-10.89h-7.2779z" inkscape:connector-curvature="0" inkscape:label="" sodipodi:nodetypes="ccccccc"/><rect x="252.15" y="563.97" width="20.211" height="12.498"/><rect x="252.15" y="549.68" width="20.211" height="14.295" inkscape:label=""/><rect x="257.48" y="536.72" width="14.874" height="12.961"/><rect x="348.54" y="604.66" width="13.434" height="6.2717"/><rect x="283.75" y="586.09" width="37.745" height="27.04" inkscape:label=""/><rect x="254.77" y="586.09" width="28.971" height="27.04" inkscape:label=""/><rect x="227.14" y="586.09" width="27.637" height="27.04" inkscape:label=""/><rect x="219.4" y="593.69" width="7.7416" height="3.145"/><rect x="219.4" y="596.83" width="7.7416" height="3.2402"/><rect x="219.4" y="600.07" width="7.7416" height="13.056"/><rect x="221.87" y="590.73" width="5.2638" height="2.9543"/><rect x="219.4" y="658.85" width="11.58" height="31.782" inkscape:label=""/><rect x="206.3" y="703.74" width="8.1956" height="18.146" inkscape:label=""/><rect x="179.88" y="700.88" width="26.419" height="21.006" inkscape:label=""/><rect x="179.88" y="674.39" width="26.419" height="26.493" inkscape:label=""/><rect id="room229A" x="179.88" y="669.05" width="26.419" height="5.3368" inkscape:label=""/><rect x="179.88" y="648.28" width="26.419" height="20.775" inkscape:label=""/><rect x="179.88" y="629.02" width="26.419" height="19.251" inkscape:label=""/><rect id="room235C" x="179.88" y="614.73" width="13.649" height="14.295" inkscape:label=""/><rect id="room235S" x="193.53" y="614.73" width="12.77" height="14.295" inkscape:label=""/><rect x="179.88" y="591.86" width="26.419" height="22.872" inkscape:label=""/><rect id="room235B" x="179.88" y="581.76" width="10.409" height="10.102" inkscape:label=""/><rect id="room235A" x="190.29" y="581.76" width="16.01" height="10.102" inkscape:label=""/><path transform="translate(10.591 350.69)" d="m171.2 187.23v43.838h29.277v-9.3379h-8.7676v-34.5z" inkscape:connector-curvature="0" inkscape:label=""/><rect x="202.3" y="537.92" width="24.587" height="34.5" inkscape:label=""/><rect x="194.48" y="509.14" width="34.693" height="28.781" inkscape:label=""/><rect x="194.48" y="472.61" width="34.693" height="36.524" inkscape:label=""/><rect x="213.62" y="459.14" width="13.399" height="13.477" inkscape:label=""/><rect x="177.77" y="427.19" width="35.85" height="45.419" inkscape:label=""/><rect x="202.57" y="427.19" width="11.052" height="18.868" inkscape:label=""/><rect x="208.36" y="459.14" width="5.2562" height="13.477" inkscape:label=""/><rect x="177.77" y="459.14" width="30.594" height="13.477" inkscape:label=""/><rect x="238.65" y="456.92" width="33.713" height="14.487" inkscape:label=""/><path transform="translate(10.591 350.69)" d="m228.05 120.71v58.492h10.127v13.829h5.6264v-7.0084h17.96v-8.4394h-15.385v-45.424h15.385v-11.449z" inkscape:connector-curvature="0" sodipodi:nodetypes="ccccccccccccc"/><rect x="239.17" y="536.72" width="9.6032" height="7.0084"/><rect x="339.56" y="428.66" width="9.3018" height="6.4191" inkscape:label=""/><path d="m334.17 408.08h9.8048l-4.1e-4 20.586-4.4158-1.2e-4v12.011h-5.3886z" inkscape:connector-curvature="0" sodipodi:nodetypes="ccccccc"/><path d="m343.97 408.08h9.6031v32.597h-4.7171v-12.011h-4.886z" inkscape:connector-curvature="0" sodipodi:nodetypes="ccccccc"/><rect x="529.09" y="486.15" width="28.096" height="13.69" inkscape:label=""/><rect x="382.57" y="549.09" width="13.019" height="16.761"/><rect x="395.59" y="549.09" width="10.864" height="16.761"/><path id="room245A" transform="translate(10.591 350.69)" d="m395.86 198.4v16.76h16.01v-4.5742h15.059v-7.2305h-10.674v-4.9551h-4.3848z" inkscape:connector-curvature="0" inkscape:label=""/></g></g></g><g transform="translate(-10.591 -350.69)" fill="#fff" opacity=".97" inkscape:groupmode="layer" inkscape:label="Doors" sodipodi:insensitive="true"><rect x="559.55" y="448.92" width="2.2963" height="3.7888" enable-background="new" opacity="1"/><rect x="522.89" y="448.92" width="2.2963" height="3.7888" enable-background="new" opacity="1"/><rect x="516.01" y="448.92" width="2.2963" height="3.7888" enable-background="new" opacity="1"/><rect transform="rotate(90)" x="443.33" y="-556.93" width="2.2963" height="3.7888" enable-background="new" opacity="1"/><rect x="470.6" y="448.92" width="2.2963" height="3.7888" enable-background="new" opacity="1"/><rect x="450.78" y="448.92" width="2.2963" height="3.7888" enable-background="new" opacity="1"/><rect x="443.24" y="438.54" width="2.2963" height="3.7888" enable-background="new" opacity="1"/><rect x="418.3" y="438.54" width="2.2963" height="3.7888" enable-background="new" opacity="1"/><rect x="409.68" y="438.54" width="2.2963" height="3.7888" enable-background="new" opacity="1"/><rect x="398.76" y="413.88" width="2.2963" height="3.7888" enable-background="new" opacity="1"/><rect transform="rotate(90)" x="416.31" y="-405.32" width="2.2963" height="3.7888" enable-background="new" opacity="1"/><rect transform="rotate(90)" x="419.75" y="-405.32" width="2.2963" height="3.7888" enable-background="new" opacity="1"/><rect transform="rotate(90)" x="436.93" y="-391.23" width="2.2963" height="3.7888" enable-background="new" opacity="1"/><rect transform="rotate(90)" x="429.5" y="-375.6" width="2.2963" height="3.7888" enable-background="new" opacity="1"/><rect transform="rotate(90)" x="436.65" y="-350.44" width="2.2963" height="3.7888" enable-background="new" opacity="1"/><rect transform="rotate(90)" x="436.65" y="-341.11" width="2.2963" height="3.7888" enable-background="new" opacity="1"/><rect x="342.72" y="432.84" width="2.2963" height="3.7888" enable-background="new" opacity="1"/><rect x="314.99" y="443.42" width="2.2963" height="3.7888" enable-background="new" opacity="1"/><rect x="309.51" y="443.42" width="2.2963" height="3.7888" enable-background="new" opacity="1"/><rect x="275.21" y="443.42" width="2.2963" height="3.7888" enable-background="new" opacity="1"/><rect x="269.35" y="443.42" width="2.2963" height="3.7888" enable-background="new" opacity="1"/><rect x="248.32" y="443.42" width="2.2963" height="3.7888" enable-background="new" opacity="1"/><rect x="204.79" y="443.82" width="2.2963" height="3.7888" enable-background="new" opacity="1"/><rect x="196.44" y="456.9" width="2.2963" height="3.7888" enable-background="new" opacity="1"/><rect x="209.64" y="470.64" width="2.2963" height="3.7888" enable-background="new" opacity="1"/><rect transform="rotate(90)" x="451.63" y="-215.27" width="2.2963" height="3.7888" enable-background="new" opacity="1"/><rect x="252.15" y="469.12" width="2.2963" height="3.7888" enable-background="new" opacity="1"/><rect transform="rotate(90)" x="474.84" y="-230.99" width="2.2963" height="3.7888" enable-background="new" opacity="1"/><rect transform="rotate(90)" x="533.16" y="-230.99" width="2.2963" height="3.7888" enable-background="new" opacity="1"/><rect transform="rotate(90)" x="574.9" y="-213.08" width="2.2963" height="3.7888" enable-background="new" opacity="1"/><rect transform="rotate(90)" x="558.13" y="-254.25" width="2.2963" height="3.7888" enable-background="new" opacity="1"/><rect transform="rotate(90)" x="587.29" y="-208.12" width="2.2963" height="3.7888" enable-background="new" opacity="1"/><rect x="200.32" y="589.97" width="2.2963" height="3.7888" enable-background="new" opacity="1"/><rect x="183.93" y="589.97" width="2.2963" height="3.7888" enable-background="new" opacity="1"/><rect x="183.93" y="612.55" width="2.2963" height="3.7888" enable-background="new" opacity="1"/><rect x="201.37" y="612.55" width="2.2963" height="3.7888" enable-background="new" opacity="1"/><rect x="183.93" y="626.84" width="2.2963" height="3.7888" enable-background="new" opacity="1"/><rect transform="rotate(90)" x="664.92" y="-208.12" width="2.2963" height="3.7888" enable-background="new" opacity="1"/><rect transform="rotate(90)" x="670.45" y="-208.12" width="2.2963" height="3.7888" enable-background="new" opacity="1"/><rect transform="rotate(90)" x="676.24" y="-208.12" width="2.2963" height="3.7888" enable-background="new" opacity="1"/><rect transform="rotate(90)" x="701.04" y="-208.12" width="2.2963" height="3.7888" enable-background="new" opacity="1"/><rect x="251.32" y="698.94" width="2.2963" height="3.7888" enable-background="new" opacity="1"/><rect x="274.28" y="698.94" width="2.2963" height="3.7888" enable-background="new" opacity="1"/><rect x="279.91" y="698.94" width="2.2963" height="3.7888" enable-background="new" opacity="1"/><rect x="319.36" y="698.94" width="2.2963" height="3.7888" enable-background="new" opacity="1"/><rect x="325.65" y="698.94" width="2.2963" height="3.7888" enable-background="new" opacity="1"/><rect x="325.65" y="688.65" width="2.2963" height="3.7888" enable-background="new" opacity="1"/><rect x="319.36" y="688.65" width="2.2963" height="3.7888" enable-background="new" opacity="1"/><rect x="279.91" y="688.65" width="2.2963" height="3.7888" enable-background="new" opacity="1"/><rect x="274.28" y="688.46" width="2.2963" height="3.7888" enable-background="new" opacity="1"/><rect x="251.32" y="688.46" width="2.2963" height="3.7888" enable-background="new" opacity="1"/><rect x="356.72" y="675.88" width="2.2963" height="3.7888" enable-background="new" opacity="1"/><rect x="384.36" y="675.88" width="2.2963" height="3.7888" enable-background="new" opacity="1"/><rect x="416.49" y="698.94" width="2.2963" height="3.7888" enable-background="new" opacity="1"/><rect x="416.49" y="688.56" width="2.2963" height="3.7888" enable-background="new" opacity="1"/><rect x="423.16" y="698.94" width="2.2963" height="3.7888" enable-background="new" opacity="1"/><rect x="423.16" y="688.75" width="2.2963" height="3.7888" enable-background="new" opacity="1"/><rect x="446.8" y="698.94" width="2.2963" height="3.7888" enable-background="new" opacity="1"/><rect x="446.8" y="688.84" width="2.2963" height="3.7888" enable-background="new" opacity="1"/><rect x="468.9" y="698.94" width="2.2963" height="3.7888" enable-background="new" opacity="1"/><rect transform="rotate(-45)" x="-147.66" y="840.42" width="2.2963" height="3.7888" enable-background="new" opacity="1"/><rect transform="rotate(-45)" x="-141.73" y="840.15" width="2.2963" height="3.7888" enable-background="new" opacity="1"/><rect x="506.64" y="681.29" width="2.2963" height="3.7888" enable-background="new" opacity="1"/><rect x="506.64" y="673.61" width="2.2963" height="3.7888" enable-background="new" opacity="1"/><rect transform="rotate(90)" x="679.46" y="-515.75" width="2.2963" height="3.7888" enable-background="new" opacity="1"/><rect transform="rotate(90)" x="675.5" y="-515.75" width="2.2963" height="3.7888" enable-background="new" opacity="1"/><rect transform="rotate(-45)" x="-138.9" y="830.58" width="2.2963" height="3.7888" enable-background="new" opacity="1"/><rect transform="rotate(90)" x="662.78" y="-498.12" width="2.2963" height="3.7888" enable-background="new" opacity="1"/><rect transform="rotate(90)" x="637.43" y="-498.12" width="2.2963" height="3.7888" enable-background="new" opacity="1"/><rect transform="rotate(90)" x="630.85" y="-498.12" width="2.2963" height="3.7888" enable-background="new" opacity="1"/><rect transform="rotate(90)" x="643.62" y="-506.89" width="2.2963" height="3.7888" enable-background="new" opacity="1"/><rect transform="rotate(90)" x="606.74" y="-506.89" width="2.2963" height="3.7888" enable-background="new" opacity="1"/><rect transform="rotate(90)" x="596.89" y="-498.12" width="2.2963" height="3.7888" enable-background="new" opacity="1"/><rect transform="rotate(90)" x="589.61" y="-498.12" width="2.2963" height="3.7888" enable-background="new" opacity="1"/><rect transform="rotate(90)" x="598.92" y="-506.89" width="2.2963" height="3.7888" enable-background="new" opacity="1"/><rect transform="rotate(90)" x="588.68" y="-506.89" width="2.2963" height="3.7888" enable-background="new" opacity="1"/><rect x="532.56" y="602.7" width="2.2963" height="3.7888" enable-background="new" opacity="1"/><rect x="529.51" y="586.12" width="2.2963" height="3.7888" enable-background="new" opacity="1"/><rect x="529.51" y="578.12" width="2.2963" height="3.7888" enable-background="new" opacity="1"/><rect x="546.1" y="562.49" width="2.2963" height="3.7888" enable-background="new" opacity="1"/><rect x="477.63" y="551.71" width="2.2963" height="3.7888" enable-background="new" opacity="1"/><rect transform="rotate(90)" x="537.01" y="-571.8" width="2.2963" height="3.7888" enable-background="new" opacity="1"/><rect transform="rotate(90)" x="516.39" y="-571.8" width="2.2963" height="3.7888" enable-background="new" opacity="1"/><rect transform="rotate(90)" x="508.44" y="-571.8" width="2.2963" height="3.7888" enable-background="new" opacity="1"/><rect transform="rotate(90)" x="514.77" y="-559.13" width="2.2963" height="3.7888" enable-background="new" opacity="1"/><rect x="550.95" y="551.44" width="2.2963" height="3.7888" enable-background="new" opacity="1"/><rect x="520.89" y="551.44" width="2.2963" height="3.7888" enable-background="new" opacity="1"/><rect x="490.16" y="551.44" width="2.2963" height="3.7888" enable-background="new" opacity="1"/><rect x="549.61" y="497.88" width="2.2963" height="3.7888" enable-background="new" opacity="1"/><rect x="532.27" y="497.88" width="2.2963" height="3.7888" enable-background="new" opacity="1"/><rect x="531.89" y="483.96" width="2.2963" height="3.7888" enable-background="new" opacity="1"/><rect x="539.13" y="466.43" width="2.2963" height="3.7888" enable-background="new" opacity="1"/><rect x="552.66" y="466.43" width="2.2963" height="3.7888" enable-background="new" opacity="1"/><rect x="530.36" y="457.47" width="2.2963" height="3.7888" enable-background="new" opacity="1"/><rect x="477.38" y="457.47" width="2.2963" height="3.7888" enable-background="new" opacity="1"/><rect x="470.71" y="457.47" width="2.2963" height="3.7888" enable-background="new" opacity="1"/><rect x="429.92" y="479.58" width="2.2963" height="3.7888" enable-background="new" opacity="1"/><rect transform="rotate(90)" x="483.37" y="-439.6" width="2.2963" height="3.7888" enable-background="new" opacity="1"/><rect x="396.76" y="450.47" width="2.2963" height="3.7888" enable-background="new" opacity="1"/><rect x="398.24" y="472.98" width="2.2963" height="3.7888" enable-background="new" opacity="1"/><rect x="422.5" y="467.18" width="2.2963" height="3.7888" enable-background="new" opacity="1"/><rect x="398.24" y="498.04" width="2.2963" height="3.7888" enable-background="new" opacity="1"/><rect transform="rotate(90)" x="462.34" y="-403.75" width="2.2963" height="3.7888" enable-background="new" opacity="1"/><rect transform="rotate(90)" x="455.47" y="-403.75" width="2.2963" height="3.7888" enable-background="new" opacity="1"/><rect transform="rotate(90)" x="458.03" y="-396.07" width="2.2963" height="3.7888" enable-background="new" opacity="1"/><rect transform="rotate(90)" x="462.21" y="-396.07" width="2.2963" height="3.7888" enable-background="new" opacity="1"/><rect transform="rotate(90)" x="455.47" y="-427.88" width="2.2963" height="3.7888" enable-background="new" opacity="1"/><rect x="449.8" y="559.42" width="2.2963" height="3.7888" enable-background="new" opacity="1"/><rect x="417.11" y="547.23" width="2.2963" height="3.7888" enable-background="new" opacity="1"/><rect x="390.16" y="547.23" width="2.2963" height="3.7888" enable-background="new" opacity="1"/><rect transform="rotate(90)" x="551.83" y="-408.34" width="2.2963" height="3.7888" enable-background="new" opacity="1"/><rect x="328.39" y="574.3" width="2.2963" height="3.7888" enable-background="new" opacity="1"/><rect x="311.23" y="574.3" width="2.2963" height="3.7888" enable-background="new" opacity="1"/><rect x="299.32" y="574.3" width="2.2963" height="3.7888" enable-background="new" opacity="1"/><rect x="289.98" y="574.3" width="2.2963" height="3.7888" enable-background="new" opacity="1"/><rect transform="rotate(90)" x="571.24" y="-336.95" width="2.2963" height="3.7888" enable-background="new" opacity="1"/><rect x="324.14" y="584.14" width="2.2963" height="3.7888" enable-background="new" opacity="1"/><rect transform="rotate(90)" x="588.11" y="-331.42" width="2.2963" height="3.7888" enable-background="new" opacity="1"/><rect transform="rotate(90)" x="596.88" y="-331.42" width="2.2963" height="3.7888" enable-background="new" opacity="1"/><rect x="339.1" y="584.14" width="2.2963" height="3.7888" enable-background="new" opacity="1"/><rect x="344.44" y="584.14" width="2.2963" height="3.7888" enable-background="new" opacity="1"/><rect x="313.85" y="584.14" width="2.2963" height="3.7888" enable-background="new" opacity="1"/><rect x="287.17" y="584.14" width="2.2963" height="3.7888" enable-background="new" opacity="1"/><rect x="258" y="584.14" width="2.2963" height="3.7888" enable-background="new" opacity="1"/><rect x="249.43" y="584.14" width="2.2963" height="3.7888" enable-background="new" opacity="1"/><rect x="219.86" y="591.59" width="1.4491" height="3.7888" enable-background="new" opacity="1"/><rect transform="rotate(90)" x="591.21" y="-223.73" width="1.9627" height="3.7888" enable-background="new" opacity="1"/><rect transform="rotate(90)" x="601.59" y="-221.08" width="2.2963" height="3.7888" enable-background="new" opacity="1"/><rect transform="rotate(90)" x="662.77" y="-221.08" width="2.2963" height="3.7888" enable-background="new" opacity="1"/><rect transform="rotate(90)" x="630.72" y="-363.82" width="2.2963" height="3.7888" enable-background="new" opacity="1"/><rect transform="rotate(90)" x="639.39" y="-363.82" width="2.2963" height="3.7888" enable-background="new" opacity="1"/><rect transform="rotate(90)" x="639.2" y="-383.64" width="2.2963" height="3.7888" enable-background="new" opacity="1"/><rect x="385.26" y="642.15" width="2.2963" height="3.7888" enable-background="new" opacity="1"/><rect x="403.32" y="642.15" width="2.2963" height="3.7888" enable-background="new" opacity="1"/><rect x="409.52" y="622.2" width="2.2963" height="3.7888" enable-background="new" opacity="1"/><rect x="386.07" y="622.2" width="2.2963" height="3.7888" enable-background="new" opacity="1"/><rect x="408.95" y="572.55" width="2.2963" height="3.7888" enable-background="new" opacity="1"/><rect transform="rotate(90)" x="598.51" y="-383.45" width="2.2963" height="3.7888" enable-background="new" opacity="1"/><rect transform="rotate(90)" x="598.51" y="-416.07" width="2.2963" height="3.7888" enable-background="new" opacity="1"/><rect transform="rotate(90)" x="598.51" y="-436.42" width="2.2963" height="3.7888" enable-background="new" opacity="1"/><rect x="428.79" y="587.97" width="2.2963" height="3.7888" enable-background="new" opacity="1"/><rect x="418.65" y="572.55" width="2.2963" height="3.7888" enable-background="new" opacity="1"/><rect x="427.01" y="572.55" width="2.2963" height="3.7888" enable-background="new" opacity="1"/><rect x="455.6" y="572.55" width="2.2963" height="3.7888" enable-background="new" opacity="1"/><rect transform="rotate(90)" x="594.7" y="-208.12" width="2.2963" height="3.7888" enable-background="new" opacity="1"/><rect transform="rotate(90)" x="571.24" y="-365.79" width="2.2963" height="3.7888" enable-background="new" opacity="1"/></g><g transform="translate(-10.591 -350.69)" fill="none" stroke="#000" inkscape:groupmode="layer" inkscape:label="Stairs" sodipodi:insensitive="true"><g stroke-width=".60238px"><path d="m474.05 591.32v-16.744h-10.928l-1e-5 30.205 22.756-6e-5v-29.292" inkscape:connector-curvature="0" sodipodi:nodetypes="cccccc"/><path d="m485.88 579.14h-22.756" inkscape:connector-curvature="0" sodipodi:nodetypes="cc"/><path d="m485.88 581.16h-22.756" inkscape:connector-curvature="0" sodipodi:nodetypes="cc"/><path d="m485.88 583.17h-22.756" inkscape:connector-curvature="0" sodipodi:nodetypes="cc"/><path d="m485.88 585.19h-22.756" inkscape:connector-curvature="0" sodipodi:nodetypes="cc"/><path d="m485.88 587.21h-22.756" inkscape:connector-curvature="0" sodipodi:nodetypes="cc"/><path d="m485.88 589.22h-22.756" inkscape:connector-curvature="0" sodipodi:nodetypes="cc"/><path d="m485.88 591.24h-22.756" inkscape:connector-curvature="0" sodipodi:nodetypes="cc"/></g><path d="m575.17 461.65 16.839 2.5e-4v6.3144h-16.839z" stroke-width=".60094" inkscape:connector-curvature="0" sodipodi:nodetypes="ccccc"/><g stroke-width=".60238px"><path d="m590.13 461.66v12.385" inkscape:connector-curvature="0" sodipodi:nodetypes="cc"/><path d="m588.29 461.66v12.385" inkscape:connector-curvature="0" sodipodi:nodetypes="cc"/><path d="m586.46 461.66v12.385" inkscape:connector-curvature="0" sodipodi:nodetypes="cc"/><path d="m584.63 461.66v12.385" inkscape:connector-curvature="0" sodipodi:nodetypes="cc"/><path d="m582.8 461.66v12.385" inkscape:connector-curvature="0" sodipodi:nodetypes="cc"/><path d="m580.96 461.66v12.385" inkscape:connector-curvature="0" sodipodi:nodetypes="cc"/><path d="m579.13 461.66v12.385" inkscape:connector-curvature="0" sodipodi:nodetypes="cc"/><path d="m577.3 461.66v12.385" inkscape:connector-curvature="0" sodipodi:nodetypes="cc"/><path d="m452.18 466.37h-11.299v6.5269l11.3 6e-5 -3.6e-4 -13.104-11.622 1.8e-4 11.622-1.8e-4" inkscape:connector-curvature="0" sodipodi:nodetypes="ccccccc"/><path d="m450.03 459.8v13.104" inkscape:connector-curvature="0" sodipodi:nodetypes="cc"/><path d="m447.98 459.8v13.104" inkscape:connector-curvature="0" sodipodi:nodetypes="cc"/><path d="m445.94 459.8v13.104" inkscape:connector-curvature="0" sodipodi:nodetypes="cc"/><path d="m443.89 459.8v13.104" inkscape:connector-curvature="0" sodipodi:nodetypes="cc"/><path d="m587.88 548.69h-15l7e-5 -6.9611 15 2.1e-4 3.1e-4 14.238-15-1.1e-4" inkscape:connector-curvature="0" sodipodi:nodetypes="cccccc"/><path d="m585.98 541.73v14.238" inkscape:connector-curvature="0" sodipodi:nodetypes="cc"/><path d="m584.12 541.73v14.238" inkscape:connector-curvature="0" sodipodi:nodetypes="cc"/><path d="m582.25 541.73v14.238" inkscape:connector-curvature="0" sodipodi:nodetypes="cc"/><path d="m580.38 541.73v14.238" inkscape:connector-curvature="0" sodipodi:nodetypes="cc"/><path d="m578.52 541.73v14.238" inkscape:connector-curvature="0" sodipodi:nodetypes="cc"/><path d="m576.65 541.73v14.238" inkscape:connector-curvature="0" sodipodi:nodetypes="cc"/><path d="m574.78 541.73v14.238" inkscape:connector-curvature="0" sodipodi:nodetypes="cc"/><path d="m389.58 716.84v-10.159l8.742 1.6e-4 9e-5 10.16-16.925-3.7e-4 9e-5 -10.159" inkscape:connector-curvature="0" sodipodi:nodetypes="cccccc"/><path d="m398.32 714.48h-16.925" inkscape:connector-curvature="0" sodipodi:nodetypes="cc"/><path d="m398.32 711.79h-16.925" inkscape:connector-curvature="0" sodipodi:nodetypes="cc"/><path d="m398.32 709.09h-16.925" inkscape:connector-curvature="0" sodipodi:nodetypes="cc"/><path d="m235.14 544.82-7e-5 7.5624 1.7236 4.5e-4v-7.5631z" inkscape:connector-curvature="0" sodipodi:nodetypes="ccccc"/><path d="m240.78 479.03v8.509" inkscape:connector-curvature="0" sodipodi:nodetypes="cc"/><path d="m245.05 479.03v8.509" inkscape:connector-curvature="0" sodipodi:nodetypes="cc"/><path d="m247.19 479.03v8.509" inkscape:connector-curvature="0" sodipodi:nodetypes="cc"/><path d="m249.33 479.03v8.509" inkscape:connector-curvature="0" sodipodi:nodetypes="cc"/><path d="m242.92 479.03v8.509" inkscape:connector-curvature="0" sodipodi:nodetypes="cc"/><path d="m368.14 418.73h10.537l-6e-4 7.2572h-10.537l-6.3e-4 -17.904h10.538" inkscape:connector-curvature="0" sodipodi:nodetypes="cccccc"/><path d="m376.81 425.98 6e-4 -17.904" inkscape:connector-curvature="0" sodipodi:nodetypes="cc"/><path d="m374.63 425.98 6e-4 -17.904" inkscape:connector-curvature="0" sodipodi:nodetypes="cc"/><path d="m372.45 425.98 6.1e-4 -17.904" inkscape:connector-curvature="0" sodipodi:nodetypes="cc"/><path d="m370.27 425.98 6e-4 -17.904" inkscape:connector-curvature="0" sodipodi:nodetypes="cc"/><path d="m353.24 716.84v-10.163h-7.2l-4e-5 10.163 13.882-1.7e-4 -1.8e-4 -10.106" inkscape:connector-curvature="0" sodipodi:nodetypes="cccccc"/><path d="m359.93 708.86h-13.882" inkscape:connector-curvature="0" sodipodi:nodetypes="cc"/><path d="m359.93 714.37h-13.882" inkscape:connector-curvature="0" sodipodi:nodetypes="cc"/><path d="m359.93 711.61h-13.882" inkscape:connector-curvature="0" sodipodi:nodetypes="cc"/></g><path d="m214.5 706.68h15.629" stroke-width=".60094" inkscape:connector-curvature="0" sodipodi:nodetypes="cc"/><g stroke-width=".60238px"><path d="m214.5 709.7h15.629" inkscape:connector-curvature="0" sodipodi:nodetypes="cc"/><path d="m214.5 712.73h15.629" inkscape:connector-curvature="0" sodipodi:nodetypes="cc"/><path d="m361.97 582.69v21.965h-13.434v-10.554h6.2406v10.554" inkscape:connector-curvature="0" sodipodi:nodetypes="cccccc"/><path d="m348.54 598.3h13.434" inkscape:connector-curvature="0" sodipodi:nodetypes="cc"/><path d="m348.54 600.33h13.434" inkscape:connector-curvature="0" sodipodi:nodetypes="cc"/><path d="m348.54 602.36h13.434" inkscape:connector-curvature="0" sodipodi:nodetypes="cc"/><path d="m348.54 596.27h13.434" inkscape:connector-curvature="0" sodipodi:nodetypes="cc"/><path d="m238.65 456.92-8.3e-4 -11.188" inkscape:connector-curvature="0" sodipodi:nodetypes="cc"/></g><path d="m242.93 456.92-8.3e-4 -11.188" stroke-width=".60094" inkscape:connector-curvature="0" sodipodi:nodetypes="cc"/><path d="m240.79 456.92-8.3e-4 -11.188" stroke-width=".60238px" inkscape:connector-curvature="0" sodipodi:nodetypes="cc"/><path d="m238.65 487.54h12.871v-4.3161" stroke-width=".60238px" inkscape:connector-curvature="0" sodipodi:nodetypes="ccc"/><g stroke-width=".60094"><path d="m592.01 467.97v6.0702l-16.839-6.2e-4" inkscape:connector-curvature="0" sodipodi:nodetypes="ccc"/><path d="m575.17 461.65h-2.5681v6.2782" inkscape:connector-curvature="0"/><path d="m592.01 461.66 8.2167 4.2e-4 4.6e-4 12.384-8.2176 6.3e-4z" inkscape:connector-curvature="0" sodipodi:nodetypes="ccccc"/></g><path d="m214.5 715.75h15.629" stroke-width=".60238px" inkscape:connector-curvature="0" sodipodi:nodetypes="cc"/><path d="m214.5 718.78h15.629" stroke-width=".60238px" inkscape:connector-curvature="0" sodipodi:nodetypes="cc"/><path d="m214.49 703.74h8.1005v18.147" stroke-width=".60094" inkscape:connector-curvature="0" sodipodi:nodetypes="ccc"/><g stroke-width=".60238px"><path d="m226.88 552.38-7e-5 10.318 9.9795 4.5e-4v-10.319z" inkscape:connector-curvature="0" sodipodi:nodetypes="ccccc"/><path d="m226.88 553.81h9.9794z" inkscape:connector-curvature="0" sodipodi:nodetypes="ccc"/><path d="m226.88 555.29h9.9794z" inkscape:connector-curvature="0" sodipodi:nodetypes="ccc"/><path d="m226.88 556.78h9.9794z" inkscape:connector-curvature="0" sodipodi:nodetypes="ccc"/><path d="m226.88 558.27h9.9794z" inkscape:connector-curvature="0" sodipodi:nodetypes="ccc"/><path d="m226.88 559.75h9.9794z" inkscape:connector-curvature="0" sodipodi:nodetypes="ccc"/><path d="m226.88 561.24h9.9794z" inkscape:connector-curvature="0" sodipodi:nodetypes="ccc"/><path d="m236.86 568.42v-24.689h2.3065" inkscape:connector-curvature="0" sodipodi:nodetypes="ccc"/><path d="m238.65 479.03h12.871" inkscape:connector-curvature="0" sodipodi:nodetypes="cc"/><path d="m238.65 483.22 10.679-2.9e-4" inkscape:connector-curvature="0" sodipodi:nodetypes="cc"/></g><g stroke-width=".60094"><path d="m213.62 414.51h17.985" inkscape:connector-curvature="0" sodipodi:nodetypes="cc"/><path d="m213.62 417.18h17.985" inkscape:connector-curvature="0" sodipodi:nodetypes="cc"/><path d="m213.62 419.86h17.985" inkscape:connector-curvature="0" sodipodi:nodetypes="cc"/><path d="m213.62 422.53h17.985" inkscape:connector-curvature="0" sodipodi:nodetypes="cc"/><path d="m213.62 425.21h17.985" inkscape:connector-curvature="0" sodipodi:nodetypes="cc"/><path d="m213.62 427.89h17.985" inkscape:connector-curvature="0" sodipodi:nodetypes="cc"/><path d="m213.62 430.56h17.985" inkscape:connector-curvature="0" sodipodi:nodetypes="cc"/><path d="m213.62 411.83h17.985" inkscape:connector-curvature="0" sodipodi:nodetypes="cc"/><path d="m213.62 430.56v-28.163h17.986" inkscape:connector-curvature="0" sodipodi:nodetypes="cc"/></g><path d="m214.49 721.89h15.629" stroke-width=".60238px" inkscape:connector-curvature="0" sodipodi:nodetypes="cc"/></g><g transform="translate(-10.591 -350.69)" inkscape:groupmode="layer" inkscape:label="Building Outline" sodipodi:insensitive="true"><path d="m468.27 423.14h121.34v27.9l10.617 10.617v94.315h-12.345v22.468l-20.025 18.153h-27.759v90.976h-8.1388v13.579l-26.233 26.233h-15.74v5.37l-91.665-3e-5v-4.6926l-52.278 2.3e-4v4.6926h-115.92v-10.864h-50.244v-140.13l1.9066-9e-4v-43.838l12.695-1e-5v-65.305h-16.712v-45.419h35.85l-4.7e-4 -24.794h17.986l-5.2e-4 5.6787h236.66z" fill="none" stroke="#000" stroke-linecap="round" stroke-linejoin="round" stroke-width="1.8071" inkscape:connector-curvature="0" sodipodi:nodetypes="ccccccccccccccccccccccccccccccccccc"/></g></svg>
